<svg width="283.46456" height="283.46456" xmlns="http://www.w3.org/2000/svg" xmlns:undefined="http://sodipodi.sourceforge.net/DTD/sodipodi-0.dtd" xmlns:undefined="http://www.inkscape.org/namespaces/inkscape" version="1.1">
 <metadata id="metadata12">image/svg+xml</metadata>

 <g>
  <title>Layer 1</title>
  <path stroke-width="0.59059" id="path2" d="m141.99446,0c-78.2863,0 -141.75146,63.45657 -141.75146,141.73228c0,78.2757 63.46516,141.73228 141.75146,141.73228c4.27054,0 8.52494,-0.19147 12.75855,-0.5721c3.93601,-0.35293 7.83741,-0.89275 11.70881,-1.56865l1.48811,-0.26298c71.97625,-13.43043 121.88227,-79.45912 115.15,-152.3599c-6.73228,-72.90077 -67.88567,-128.67786 -141.10547,-128.70093zm-11.3881,273.51515l-0.33453,0c-3.67529,-0.32526 -7.3229,-0.81662 -10.9382,-1.44639c-0.20765,-0.037 -0.41529,-0.06 -0.61832,-0.0992c-3.53456,-0.63208 -7.0322,-1.41641 -10.49524,-2.33222l-0.8375,-0.21452c-3.37767,-0.91583 -6.71843,-1.97928 -10.01073,-3.16038c-0.34144,-0.12227 -0.68523,-0.23067 -1.02669,-0.35754c-3.2277,-1.18572 -6.39774,-2.51446 -9.51931,-3.95162c-0.3876,-0.17303 -0.7752,-0.3391 -1.1628,-0.52365c-3.06159,-1.41641 -6.0632,-3.01273 -9.00713,-4.69211c-0.41529,-0.23532 -0.83518,-0.4706 -1.25047,-0.70359c-2.89779,-1.69092 -5.72866,-3.50409 -8.50647,-5.41877c-0.41991,-0.29295 -0.84443,-0.57671 -1.26202,-0.86968c-2.72936,-1.93544 -5.38951,-3.99084 -7.98044,-6.14081l-0.71293,-0.62289l0,-39.83218c0.03461,-28.68787 23.28379,-51.93391 51.97554,-51.9685l66.15069,0c28.69175,0.0348 51.94092,23.28063 51.97553,51.9685l0,39.83683l-0.62754,0.52365c-2.6417,2.20534 -5.3526,4.29072 -8.13733,6.26076c-0.36915,0.25837 -0.74291,0.5052 -1.10974,0.75896c-2.81012,1.95158 -5.68944,3.78782 -8.63798,5.51334c-0.36915,0.21453 -0.74752,0.41754 -1.11436,0.62977c-2.98776,1.70014 -6.02628,3.30571 -9.12479,4.75209c-0.35531,0.16611 -0.7129,0.32066 -1.07282,0.4729c-3.14696,1.45101 -6.34467,2.78667 -9.59545,3.98161c-0.323,0.11996 -0.64831,0.22375 -0.94593,0.3368c-3.30846,1.18571 -6.66306,2.25839 -10.05919,3.17882l-0.81442,0.203c-3.46766,0.91581 -6.9676,1.70475 -10.50678,2.33914c-0.20303,0.037 -0.40605,0.0623 -0.60909,0.0946c-3.61992,0.63208 -7.27214,1.12344 -10.94974,1.45101l-0.33453,0c-3.77911,0.32527 -7.56054,0.50058 -11.38811,0.50058c-3.82756,0 -7.63897,-0.14302 -11.41117,-0.46829l-0.00001,-0.00002zm105.88908,-39.2878l0,-31.07775c-0.0392,-33.90364 -27.51741,-61.37811 -61.42563,-61.41732l-66.15069,0c-33.90822,0.0392 -61.38641,27.51368 -61.42563,61.41732l0,31.07314c-50.89118,-51.9339 -50.32362,-135.19931 1.26893,-186.43654c51.59255,-51.23493 134.87154,-51.23493 186.46408,0c51.59255,51.23723 52.16011,134.50264 1.26894,186.43654l0,0.00461zm0,0"/>
  <path stroke="null" id="svg_1" d="m75.24182,57.17164l24.96465,10.73172c-4.8631,7.01689 -7.51815,15.33723 -7.51815,23.84223c0,23.60978 19.8612,42.82043 44.27328,42.82043c24.41432,0 44.27552,-19.21065 44.27552,-42.82043c0,-8.41593 -2.60563,-16.65806 -7.37439,-23.62933l23.46416,-10.08434l0,40.62846l-6.29619,13.70792c-0.46497,1.008 -0.36838,2.17459 0.25382,3.10003s1.68468,1.48376 2.82576,1.48376l12.74513,0c1.12536,0 2.17885,-0.5431 2.8033,-1.449c0.62221,-0.9059 0.73901,-2.05293 0.30998,-3.05876l-5.90086,-13.73834l0,-43.66767c0,-1.79876 -1.50947,-3.25862 -3.36935,-3.25862c-0.15499,0 -0.301,0.0239 -0.45149,0.04345c-0.26955,-0.24331 -0.5683,-0.45621 -0.91646,-0.6061l-60.67977,-26.07982c-0.87379,-0.37366 -1.86662,-0.37366 -2.73816,0l-60.67079,26.07982c-1.21746,0.52355 -2.00139,1.69014 -2.00139,2.97838s0.78618,2.45265 2.00139,2.97621zm99.25884,33.80057c0,20.01878 -16.84002,36.30319 -37.53682,36.30319s-37.53457,-16.28441 -37.53457,-36.30319c0,-7.59258 2.50455,-15.00703 7.05542,-21.14409l29.43016,12.64996c0.43577,0.18683 0.90299,0.28024 1.36796,0.28024s0.93219,-0.09341 1.36796,-0.28024l28.94947,-12.44141c4.45204,6.09362 6.90043,13.42986 6.90043,20.93554zm24.79393,19.46265l1.30057,-2.82848l1.21521,2.82848l-2.51578,0zm-62.01179,-79.52769l52.38218,22.51271l-52.38218,22.51271l-52.3732,-22.51271l52.3732,-22.51271z"/>
 </g>
</svg>