<?xml version="1.0" encoding="UTF-8" standalone="no"?>
<svg
   xmlns:dc="http://purl.org/dc/elements/1.1/"
   xmlns:cc="http://creativecommons.org/ns#"
   xmlns:rdf="http://www.w3.org/1999/02/22-rdf-syntax-ns#"
   xmlns:svg="http://www.w3.org/2000/svg"
   xmlns="http://www.w3.org/2000/svg"
   xmlns:sodipodi="http://sodipodi.sourceforge.net/DTD/sodipodi-0.dtd"
   xmlns:inkscape="http://www.inkscape.org/namespaces/inkscape"
   width="250"
   height="64"
   viewBox="0 0 66.145833 16.933332"
   version="1.1"
   id="svg888"
   inkscape:version="1.0.1 (3bc2e813f5, 2020-09-07)"
   sodipodi:docname="AboutProject.svg"
   inkscape:export-filename="/home/rostislav/Pictures/Pictures/SVGs/Title.png"
   inkscape:export-xdpi="91"
   inkscape:export-ydpi="91">
  <defs
     id="defs882">
    <rect
       x="-0.75362235"
       y="37.830677"
       width="201.56561"
       height="12.346849"
       id="rect1465" />
    <rect
       x="0.56001562"
       y="0.22823699"
       width="198.67982"
       height="49.444149"
       id="rect1453" />
  </defs>
  <sodipodi:namedview
     id="base"
     pagecolor="#ffffff"
     bordercolor="#666666"
     borderopacity="1.0"
     inkscape:pageopacity="0.0"
     inkscape:pageshadow="2"
     inkscape:zoom="3.959798"
     inkscape:cx="168.54469"
     inkscape:cy="66.081782"
     inkscape:document-units="px"
     inkscape:current-layer="text889"
     inkscape:document-rotation="0"
     showgrid="false"
     inkscape:window-width="1366"
     inkscape:window-height="704"
     inkscape:window-x="0"
     inkscape:window-y="27"
     inkscape:window-maximized="1"
     showborder="false"
     units="px" />
  <metadata
     id="metadata885">
    <rdf:RDF>
      <cc:Work
         rdf:about="">
        <dc:format>image/svg+xml</dc:format>
        <dc:type
           rdf:resource="http://purl.org/dc/dcmitype/StillImage" />
        <dc:title></dc:title>
      </cc:Work>
    </rdf:RDF>
  </metadata>
  <g
     inkscape:label="Layer 1"
     inkscape:groupmode="layer"
     id="layer1">
    <path
       d="M 3.8440188,8.802083 H 7.2414295 L 5.1678924,2.2916665 4.976489,5.1388887 Z M 2.6636976,-6.802625e-8 q 0,0 4.8967375,0 L 11.133299,11.180555 l 1.004868,2.048612 q 0,0 -3.4612118,0 l -0.781564,-2.378473 -5.8378043,0.01736 0.9889176,0.538194 -0.5742104,1.822918 H 0 L 0.95701717,11.197916 4.0832731,1.1979166 Z M 3.0465045,11.406249 Z"
       style="font-style:normal;font-variant:normal;font-weight:normal;font-stretch:normal;font-size:10.5833px;line-height:1.25;font-family:'a Absolute Empire';-inkscape-font-specification:'a Absolute Empire';white-space:pre;fill:#000000;fill-opacity:1;stroke:none;stroke-width:1.6101"
       id="path1151" />
    <path
       d="m 20.687519,11.180555 0.988918,-2.048611 q 0.159503,0.6944444 0.494459,2.048611 0.334955,1.371528 0.494459,2.048612 h -5.311446 q -2.583946,0 -4.019471,-2.32639 -1.13247,-1.8229164 -1.13247,-4.3055551 0,-2.7777777 1.355774,-4.6527776 0.54231,-0.7118055 1.212221,-1.18055544 L 13.398239,-6.802625e-8 h 8.692906 V 2.8472221 l -1.244123,-0.798611 h -2.28089 q -1.722632,0 -2.615847,1.8229165 -0.59016,1.2152777 -0.59016,2.7604166 0,2.1701388 1.036767,3.4722218 0.861316,1.059028 2.15329,1.076389 z"
       style="font-style:normal;font-variant:normal;font-weight:normal;font-stretch:normal;font-size:10.5833px;line-height:1.25;font-family:'a Absolute Empire';-inkscape-font-specification:'a Absolute Empire';white-space:pre;fill:#000000;fill-opacity:1;stroke:none;stroke-width:1.6101"
       id="path1153" />
    <path
       d="m 31.629415,11.180555 0.988918,-2.048611 q 0.159503,0.6944444 0.494459,2.048611 0.334955,1.371528 0.494459,2.048612 h -5.311446 q -2.583946,0 -4.019471,-2.32639 -1.13247,-1.8229164 -1.13247,-4.3055551 0,-2.7777777 1.355774,-4.6527776 0.54231,-0.7118055 1.212221,-1.18055544 L 24.340136,-6.802625e-8 h 8.692905 V 2.8472221 l -1.244123,-0.798611 h -2.28089 q -1.722632,0 -2.615848,1.8229165 -0.59016,1.2152777 -0.59016,2.7604166 0,2.1701388 1.036768,3.4722218 0.861316,1.059028 2.153288,1.076389 z"
       style="font-style:normal;font-variant:normal;font-weight:normal;font-stretch:normal;font-size:10.5833px;line-height:1.25;font-family:'a Absolute Empire';-inkscape-font-specification:'a Absolute Empire';white-space:pre;fill:#000000;fill-opacity:1;stroke:none;stroke-width:1.6101"
       id="path1155" />
    <path
       d="M 35.138479,1.5277776 33.304197,-6.802625e-8 H 43.416678 V 2.8472221 l -1.244123,-0.798611 h -5.901606 l 1.818333,0.7638887 V 5.4166663 H 41.8376 l -0.653963,2.0486112 h -3.094355 v 3.7152775 h 3.92377 l 1.004868,-2.048611 0.972968,4.097223 H 34.64402 l 0.494459,-2.048612 z"
       style="font-style:normal;font-variant:normal;font-weight:normal;font-stretch:normal;font-size:10.5833px;line-height:1.25;font-family:'a Absolute Empire';-inkscape-font-specification:'a Absolute Empire';white-space:pre;fill:#000000;fill-opacity:1;stroke:none;stroke-width:1.6101"
       id="path1157" />
    <path
       d="m 46.830038,2.0486111 1.818333,0.7638887 v 3.4027777 h 2.233041 q 1.18032,0 1.626928,-1.1284722 0.175453,-0.4513889 0.175453,-0.954861 0,-1.1631944 -0.765613,-1.7534721 -0.462558,-0.3298611 -1.05272,-0.3298611 z m 1.818333,6.1979163 v 2.9340276 l 0.494459,2.048612 h -3.939721 l 0.494459,-2.048612 V 1.5277776 L 43.863286,-6.802625e-8 h 8.198446 q 2.137338,0 3.190057,1.75347216802625 0.638011,1.0763889 0.638011,2.4131944 0,1.892361 -1.13247,3.0555554 -1.004868,1.0243055 -2.520145,1.0243055 z"
       style="font-style:normal;font-variant:normal;font-weight:normal;font-stretch:normal;font-size:10.5833px;line-height:1.25;font-family:'a Absolute Empire';-inkscape-font-specification:'a Absolute Empire';white-space:pre;fill:#000000;fill-opacity:1;stroke:none;stroke-width:1.6101"
       id="path1159" />
    <path
       d="M 57.787881,2.0486111 55.602693,-6.802625e-8 H 66.145831 V 2.8472221 l -1.228172,-0.798611 h -3.95567 l 1.834282,0.7638887 v 8.3680552 l 0.478509,2.048612 h -3.939721 l 0.494459,-2.048612 V 2.0486111 Z"
       style="font-style:normal;font-variant:normal;font-weight:normal;font-stretch:normal;font-size:10.5833px;line-height:1.25;font-family:'a Absolute Empire';-inkscape-font-specification:'a Absolute Empire';white-space:pre;fill:#000000;fill-opacity:1;stroke:none;stroke-width:1.6101"
       id="path1161" />
    <text
       xml:space="preserve"
       id="text1463"
       style="font-style:normal;font-variant:normal;font-weight:normal;font-stretch:normal;font-size:7.9375px;line-height:1.25;font-family:'a Adulsa Script';-inkscape-font-specification:'a Adulsa Script';white-space:pre;shape-inside:url(#rect1465);fill:#000000;fill-opacity:1;stroke:none;"
       transform="matrix(0.42063433,0,0,1.3320749,0.3171824,-40.499801)" />
    <g
       id="g156"
       transform="matrix(1.250001,0,0,1.274626,0.5878656,-4.8896395)">
      <g
         id="g204">
        <g
           aria-label="is Controlled Contraption for Education &amp; Program Testing
"
           transform="scale(0.93478816,1.0697611)"
           id="text889"
           style="font-size:2.14174px;line-height:1.25;font-family:'DejaVu Sans';-inkscape-font-specification:'DejaVu Sans';stroke-width:0.0535433">
          <path
             d="M 0.00877568,15.574101 V 15.47344 H -0.1240122 v -0.863122 l -0.37266278,0.01713 v 0.100662 c 0.12636267,0 0.14135485,0 0.14135485,0.08353 V 15.47344 H -0.5031002 v 0.100661 l 0.26129229,-0.0064 z m -0.10280352,-1.304319 c 0,-0.08995 -0.0749609,-0.167056 -0.16705573,-0.167056 -0.10066178,0 -0.16919746,0.08139 -0.16919746,0.167056 0,0.08995 0.0749609,0.167055 0.16705572,0.167055 0.10066179,0 0.16919747,-0.08139 0.16919747,-0.167055 z"
             style="font-style:normal;font-variant:normal;font-weight:normal;font-stretch:normal;font-family:'Latin Modern Roman Demi';-inkscape-font-specification:'Latin Modern Roman Demi';stroke-width:0.0535433"
             id="path893" />
          <path
             d="m 0.80764448,15.2764 c 0,-0.126363 -0.0663939,-0.192757 -0.0963783,-0.2206 -0.0706774,-0.07068 -0.14778007,-0.08567 -0.23559141,-0.102803 -0.10066178,-0.02142 -0.21631575,-0.04284 -0.21631575,-0.14778 0,-0.130646 0.14992181,-0.132788 0.19061487,-0.132788 0.18847313,0 0.19918183,0.137071 0.20346531,0.182048 0.002142,0.03213 0.006425,0.04069 0.04926,0.04069 0.0514018,0 0.0514018,-0.01071 0.0514018,-0.05997 v -0.171339 c 0,-0.04069 0,-0.05997 -0.0385513,-0.05997 -0.0171339,0 -0.0599687,0.02356 -0.0878113,0.03855 -0.0364096,-0.02142 -0.0963783,-0.03855 -0.17776443,-0.03855 -0.15420529,0 -0.34267841,0.05354 -0.34267841,0.280568 0,0.104945 0.057827,0.160631 0.0835279,0.186332 0.0685357,0.06854 0.14992181,0.08567 0.24844185,0.104945 0.0856696,0.01713 0.21631575,0.04283 0.21631575,0.175622 0,0.126363 -0.0963783,0.158489 -0.19275661,0.158489 -0.15420529,0 -0.21631575,-0.100662 -0.25272533,-0.242016 -0.008567,-0.02998 -0.0107087,-0.03641 -0.0514018,-0.03641 -0.0514018,0 -0.0514018,0.01285 -0.0514018,0.06211 v 0.23345 c 0,0.04069 0,0.05997 0.0385513,0.05997 0.0149922,0 0.0192757,0 0.057827,-0.0257 0.0107087,-0.0086 0.0406931,-0.02784 0.0514018,-0.03427 0.0856696,0.05997 0.17562269,0.05997 0.20774879,0.05997 0.26343403,0 0.34482015,-0.149922 0.34482015,-0.310552 z"
             style="font-style:normal;font-variant:normal;font-weight:normal;font-stretch:normal;font-family:'Latin Modern Roman Demi';-inkscape-font-specification:'Latin Modern Roman Demi';stroke-width:0.0535433"
             id="path895" />
          <path
             d="m 3.0179146,15.087926 c 0,-0.04283 -0.014992,-0.04498 -0.051402,-0.04498 -0.027843,0 -0.047118,0 -0.04926,0.03641 0,0.28271 -0.222741,0.41764 -0.4069307,0.41764 -0.1520635,0 -0.3019853,-0.06639 -0.3812297,-0.19704 -0.074961,-0.126363 -0.087811,-0.265576 -0.087811,-0.460474 0,-0.137072 0,-0.342679 0.1006618,-0.481892 0.107087,-0.14778 0.2720009,-0.175623 0.3640958,-0.175623 0.1734809,0 0.3533871,0.132788 0.3983636,0.445482 0.00428,0.03427 0.019276,0.03427 0.055685,0.03427 0.055685,0 0.057827,-0.0043 0.057827,-0.05997 v -0.460474 c 0,-0.04069 0,-0.05997 -0.038551,-0.05997 -0.019276,0 -0.023559,0.0043 -0.040693,0.01928 l -0.124221,0.113512 c -0.09852,-0.08567 -0.2077487,-0.132787 -0.3491036,-0.132787 -0.419781,0 -0.7517508,0.274142 -0.7517508,0.758176 0,0.477608 0.3234028,0.758176 0.7538925,0.758176 0.3491037,0 0.5504272,-0.280568 0.5504272,-0.509735 z"
             style="font-style:normal;font-variant:normal;font-weight:normal;font-stretch:normal;font-family:'Latin Modern Roman Demi';-inkscape-font-specification:'Latin Modern Roman Demi';stroke-width:0.0535433"
             id="path897" />
          <path
             d="m 4.1487494,15.10506 c 0,-0.301985 -0.1884731,-0.501167 -0.4754663,-0.501167 -0.2762844,0 -0.4733245,0.190615 -0.4733245,0.501167 0,0.308411 0.2013235,0.481892 0.4733245,0.481892 0.2827097,0 0.4754663,-0.182048 0.4754663,-0.481892 z m -0.2741427,-0.02142 c 0,0.100662 0,0.212032 -0.021417,0.284851 -0.021417,0.08353 -0.1006618,0.132788 -0.1777644,0.132788 -0.079244,0 -0.1606305,-0.04712 -0.1841897,-0.141355 -0.017134,-0.07068 -0.017134,-0.201323 -0.017134,-0.276284 0,-0.100662 0,-0.203465 0.019276,-0.272001 0.021417,-0.08139 0.1006618,-0.130646 0.1799061,-0.130646 0.092095,0 0.1627723,0.06211 0.1820479,0.130646 0.019276,0.07068 0.019276,0.173481 0.019276,0.272001 z"
             style="font-style:normal;font-variant:normal;font-weight:normal;font-stretch:normal;font-family:'Latin Modern Roman Demi';-inkscape-font-specification:'Latin Modern Roman Demi';stroke-width:0.0535433"
             id="path899" />
          <path
             d="M 5.3952382,15.574101 V 15.47344 h -0.14778 v -0.561136 c 0,-0.160631 -0.051402,-0.301986 -0.2891349,-0.301986 -0.1542053,0 -0.2634341,0.08781 -0.3255445,0.216316 h -0.00214 v -0.216316 l -0.3683793,0.01713 v 0.100662 c 0.1327879,0 0.1477801,0 0.1477801,0.08353 V 15.47344 H 4.2622577 v 0.100661 l 0.2698593,-0.0064 0.2698592,0.0064 V 15.47344 h -0.14778 v -0.447624 c 0,-0.237733 0.1649139,-0.338395 0.2720009,-0.338395 0.034268,0 0.077103,0.01071 0.077103,0.199182 V 15.47344 H 4.8640867 v 0.100661 l 0.263434,-0.0064 z"
             style="font-style:normal;font-variant:normal;font-weight:normal;font-stretch:normal;font-family:'Latin Modern Roman Demi';-inkscape-font-specification:'Latin Modern Roman Demi';stroke-width:0.0535433"
             id="path901" />
          <path
             d="M 6.05489,15.312809 V 15.195013 H 5.9542282 v 0.115654 c 0,0.115654 -0.034268,0.190615 -0.096378,0.190615 -0.096378,0 -0.096378,-0.139213 -0.096378,-0.179906 V 14.723831 H 6.0206221 V 14.623169 H 5.7614716 V 14.214096 H 5.6608098 c -0.00214,0.179907 -0.06211,0.424065 -0.2784262,0.432632 v 0.0771 h 0.1349296 v 0.586836 c 0,0.231308 0.173481,0.276285 0.3126941,0.276285 0.1627722,0 0.2248827,-0.145638 0.2248827,-0.274143 z"
             style="font-style:normal;font-variant:normal;font-weight:normal;font-stretch:normal;font-family:'Latin Modern Roman Demi';-inkscape-font-specification:'Latin Modern Roman Demi';stroke-width:0.0535433"
             id="path903" />
          <path
             d="m 7.0336637,14.785941 c 0,-0.119937 -0.1263627,-0.175623 -0.2291662,-0.175623 -0.09852,0 -0.1884732,0.0514 -0.2355914,0.194899 h -0.00214 v -0.194899 l -0.3555288,0.01713 v 0.100662 c 0.1327878,0 0.14778,0 0.14778,0.08353 v 0.661798 h -0.14778 v 0.100661 l 0.2698592,-0.0064 c 0.081386,0 0.2184575,0 0.2955601,0.0064 V 15.47344 H 6.5903235 v -0.383372 c 0,-0.16063 0.032126,-0.402647 0.2227409,-0.402647 0,0 -0.040693,0.03641 -0.040693,0.09852 0,0.08781 0.068536,0.130646 0.1306461,0.130646 0.062111,0 0.1306462,-0.04498 0.1306462,-0.130646 z"
             style="font-style:normal;font-variant:normal;font-weight:normal;font-stretch:normal;font-family:'Latin Modern Roman Demi';-inkscape-font-specification:'Latin Modern Roman Demi';stroke-width:0.0535433"
             id="path905" />
          <path
             d="m 8.1023908,15.10506 c 0,-0.301985 -0.1884731,-0.501167 -0.4754663,-0.501167 -0.2762844,0 -0.4733245,0.190615 -0.4733245,0.501167 0,0.308411 0.2013236,0.481892 0.4733245,0.481892 0.2827097,0 0.4754663,-0.182048 0.4754663,-0.481892 z m -0.2741427,-0.02142 c 0,0.100662 0,0.212032 -0.021417,0.284851 -0.021417,0.08353 -0.1006618,0.132788 -0.1777644,0.132788 -0.079244,0 -0.1606305,-0.04712 -0.1841897,-0.141355 -0.017134,-0.07068 -0.017134,-0.201323 -0.017134,-0.276284 0,-0.100662 0,-0.203465 0.019276,-0.272001 0.021417,-0.08139 0.1006618,-0.130646 0.1799061,-0.130646 0.092095,0 0.1627723,0.06211 0.182048,0.130646 0.019276,0.07068 0.019276,0.173481 0.019276,0.272001 z"
             style="font-style:normal;font-variant:normal;font-weight:normal;font-stretch:normal;font-family:'Latin Modern Roman Demi';-inkscape-font-specification:'Latin Modern Roman Demi';stroke-width:0.0535433"
             id="path907" />
          <path
             d="M 8.7470507,15.574101 V 15.47344 H 8.5992706 v -1.385706 l -0.379088,0.01713 v 0.100662 c 0.1327879,0 0.1477801,0 0.1477801,0.08353 V 15.47344 H 8.2201826 v 0.100661 l 0.263434,-0.0064 z"
             style="font-style:normal;font-variant:normal;font-weight:normal;font-stretch:normal;font-family:'Latin Modern Roman Demi';-inkscape-font-specification:'Latin Modern Roman Demi';stroke-width:0.0535433"
             id="path909" />
          <path
             d="M 9.3424543,15.574101 V 15.47344 h -0.14778 v -1.385706 l -0.379088,0.01713 v 0.100662 c 0.1327879,0 0.1477801,0 0.1477801,0.08353 V 15.47344 H 8.8155863 v 0.100661 l 0.263434,-0.0064 z"
             style="font-style:normal;font-variant:normal;font-weight:normal;font-stretch:normal;font-family:'Latin Modern Roman Demi';-inkscape-font-specification:'Latin Modern Roman Demi';stroke-width:0.0535433"
             id="path911" />
          <path
             d="m 10.293387,15.323518 c 0,-0.03855 -0.04069,-0.03855 -0.0514,-0.03855 -0.03641,0 -0.04069,0.01071 -0.0514,0.04069 -0.0514,0.130646 -0.175622,0.175622 -0.2612919,0.175622 -0.2398749,0 -0.2398749,-0.267717 -0.2398749,-0.39408 h 0.5354348 c 0.05354,0 0.06854,-0.0021 0.06854,-0.06211 0,-0.190615 -0.0771,-0.441199 -0.4090725,-0.441199 -0.2762845,0 -0.4690411,0.188473 -0.4690411,0.488317 0,0.310552 0.214174,0.494742 0.494742,0.494742 0.2869936,0 0.3833716,-0.218458 0.3833716,-0.263434 z M 10.089922,15.036525 H 9.6894162 c 0.00214,-0.109229 0.00857,-0.355529 0.1970401,-0.355529 0.2034657,0 0.2034657,0.306269 0.2034657,0.355529 z"
             style="font-style:normal;font-variant:normal;font-weight:normal;font-stretch:normal;font-family:'Latin Modern Roman Demi';-inkscape-font-specification:'Latin Modern Roman Demi';stroke-width:0.0535433"
             id="path913" />
          <path
             d="M 11.509892,15.574101 V 15.47344 c -0.132787,0 -0.14778,0 -0.14778,-0.08353 v -1.302178 l -0.379088,0.01713 v 0.100662 c 0.132788,0 0.14778,0 0.14778,0.08353 v 0.402648 c -0.09638,-0.07496 -0.184189,-0.08139 -0.235591,-0.08139 -0.254867,0 -0.469041,0.17134 -0.469041,0.488317 0,0.325545 0.20989,0.488317 0.447624,0.488317 0.08781,0 0.171339,-0.02784 0.244158,-0.08781 v 0.08781 z m -0.391938,-0.201323 c -0.04926,0.0771 -0.128504,0.137071 -0.224883,0.137071 -0.07924,0 -0.141355,-0.05354 -0.169197,-0.134929 -0.02356,-0.07282 -0.02356,-0.199182 -0.02356,-0.274143 0,-0.08567 0,-0.199182 0.0257,-0.274143 0.03213,-0.08567 0.102803,-0.139213 0.190614,-0.139213 0.06639,0 0.143497,0.03213 0.201324,0.113512 z"
             style="font-style:normal;font-variant:normal;font-weight:normal;font-stretch:normal;font-family:'Latin Modern Roman Demi';-inkscape-font-specification:'Latin Modern Roman Demi';stroke-width:0.0535433"
             id="path915" />
          <path
             d="m 13.683755,15.087926 c 0,-0.04283 -0.01499,-0.04498 -0.0514,-0.04498 -0.02784,0 -0.04712,0 -0.04926,0.03641 0,0.28271 -0.222741,0.41764 -0.406931,0.41764 -0.152063,0 -0.301985,-0.06639 -0.381229,-0.19704 -0.07496,-0.126363 -0.08781,-0.265576 -0.08781,-0.460474 0,-0.137072 0,-0.342679 0.100662,-0.481892 0.107087,-0.14778 0.272001,-0.175623 0.364096,-0.175623 0.173481,0 0.353387,0.132788 0.398364,0.445482 0.0043,0.03427 0.01928,0.03427 0.05569,0.03427 0.05569,0 0.05783,-0.0043 0.05783,-0.05997 v -0.460474 c 0,-0.04069 0,-0.05997 -0.03855,-0.05997 -0.01928,0 -0.02356,0.0043 -0.04069,0.01928 l -0.124221,0.113512 c -0.09852,-0.08567 -0.207748,-0.132787 -0.349103,-0.132787 -0.419781,0 -0.751751,0.274142 -0.751751,0.758176 0,0.477608 0.323403,0.758176 0.753893,0.758176 0.349103,0 0.550427,-0.280568 0.550427,-0.509735 z"
             style="font-style:normal;font-variant:normal;font-weight:normal;font-stretch:normal;font-family:'Latin Modern Roman Demi';-inkscape-font-specification:'Latin Modern Roman Demi';stroke-width:0.0535433"
             id="path917" />
          <path
             d="m 14.81459,15.10506 c 0,-0.301985 -0.188474,-0.501167 -0.475467,-0.501167 -0.276284,0 -0.473324,0.190615 -0.473324,0.501167 0,0.308411 0.201323,0.481892 0.473324,0.481892 0.28271,0 0.475467,-0.182048 0.475467,-0.481892 z m -0.274143,-0.02142 c 0,0.100662 0,0.212032 -0.02142,0.284851 -0.02142,0.08353 -0.100661,0.132788 -0.177764,0.132788 -0.07924,0 -0.16063,-0.04712 -0.18419,-0.141355 -0.01713,-0.07068 -0.01713,-0.201323 -0.01713,-0.276284 0,-0.100662 0,-0.203465 0.01928,-0.272001 0.02142,-0.08139 0.100662,-0.130646 0.179906,-0.130646 0.09209,0 0.162773,0.06211 0.182048,0.130646 0.01928,0.07068 0.01928,0.173481 0.01928,0.272001 z"
             style="font-style:normal;font-variant:normal;font-weight:normal;font-stretch:normal;font-family:'Latin Modern Roman Demi';-inkscape-font-specification:'Latin Modern Roman Demi';stroke-width:0.0535433"
             id="path919" />
          <path
             d="M 16.061079,15.574101 V 15.47344 h -0.14778 v -0.561136 c 0,-0.160631 -0.0514,-0.301986 -0.289135,-0.301986 -0.154205,0 -0.263434,0.08781 -0.325545,0.216316 h -0.0021 v -0.216316 l -0.36838,0.01713 v 0.100662 c 0.132788,0 0.14778,0 0.14778,0.08353 v 0.661798 h -0.14778 v 0.100661 l 0.26986,-0.0064 0.269859,0.0064 V 15.47344 h -0.14778 v -0.447624 c 0,-0.237733 0.164914,-0.338395 0.272001,-0.338395 0.03427,0 0.0771,0.01071 0.0771,0.199182 v 0.586837 h -0.139213 v 0.100661 l 0.263434,-0.0064 z"
             style="font-style:normal;font-variant:normal;font-weight:normal;font-stretch:normal;font-family:'Latin Modern Roman Demi';-inkscape-font-specification:'Latin Modern Roman Demi';stroke-width:0.0535433"
             id="path921" />
          <path
             d="m 16.720731,15.312809 v -0.117796 h -0.100662 v 0.115654 c 0,0.115654 -0.03427,0.190615 -0.09638,0.190615 -0.09638,0 -0.09638,-0.139213 -0.09638,-0.179906 v -0.597545 h 0.259151 V 14.623169 H 16.427312 V 14.214096 H 16.32665 c -0.0021,0.179907 -0.06211,0.424065 -0.278426,0.432632 v 0.0771 h 0.13493 v 0.586836 c 0,0.231308 0.173481,0.276285 0.312694,0.276285 0.162772,0 0.224883,-0.145638 0.224883,-0.274143 z"
             style="font-style:normal;font-variant:normal;font-weight:normal;font-stretch:normal;font-family:'Latin Modern Roman Demi';-inkscape-font-specification:'Latin Modern Roman Demi';stroke-width:0.0535433"
             id="path923" />
          <path
             d="m 17.699505,14.785941 c 0,-0.119937 -0.126363,-0.175623 -0.229166,-0.175623 -0.09852,0 -0.188474,0.0514 -0.235592,0.194899 h -0.0021 v -0.194899 l -0.355528,0.01713 v 0.100662 c 0.132787,0 0.14778,0 0.14778,0.08353 v 0.661798 h -0.14778 v 0.100661 l 0.269859,-0.0064 c 0.08139,0 0.218457,0 0.29556,0.0064 V 15.47344 h -0.186331 v -0.383372 c 0,-0.16063 0.03213,-0.402647 0.222741,-0.402647 0,0 -0.04069,0.03641 -0.04069,0.09852 0,0.08781 0.06854,0.130646 0.130647,0.130646 0.06211,0 0.130646,-0.04498 0.130646,-0.130646 z"
             style="font-style:normal;font-variant:normal;font-weight:normal;font-stretch:normal;font-family:'Latin Modern Roman Demi';-inkscape-font-specification:'Latin Modern Roman Demi';stroke-width:0.0535433"
             id="path925" />
          <path
             d="m 18.787506,15.5227 c 0,-0.04284 -0.02142,-0.04712 -0.04498,-0.04926 -0.100662,-0.0064 -0.100662,-0.03427 -0.100662,-0.07925 v -0.462616 c 0,-0.203465 -0.158489,-0.327686 -0.421923,-0.327686 -0.07068,0 -0.351245,0.0043 -0.351245,0.19704 0,0.09424 0.07496,0.13493 0.132788,0.13493 0.06639,0 0.134929,-0.04498 0.134929,-0.13493 0,-0.06854 -0.04926,-0.107087 -0.04926,-0.107087 0.04498,-0.0086 0.06211,-0.01285 0.126363,-0.01285 0.128504,0 0.184189,0.102803 0.184189,0.248442 v 0.0771 c -0.30841,0.0064 -0.588978,0.109229 -0.588978,0.334112 0,0.177764 0.201324,0.2463 0.361954,0.2463 0.130646,0 0.218458,-0.07496 0.263434,-0.171339 0,0.04498 0,0.158488 0.194898,0.158488 h 0.08995 c 0.04284,0 0.06854,0 0.06854,-0.0514 z m -0.389797,-0.244159 c 0,0.18419 -0.139213,0.231308 -0.201323,0.231308 -0.08781,0 -0.137071,-0.08781 -0.137071,-0.169197 0,-0.235592 0.282709,-0.261293 0.338394,-0.265576 z"
             style="font-style:normal;font-variant:normal;font-weight:normal;font-stretch:normal;font-family:'Latin Modern Roman Demi';-inkscape-font-specification:'Latin Modern Roman Demi';stroke-width:0.0535433"
             id="path927" />
          <path
             d="m 19.918341,15.096493 c 0,-0.314835 -0.199181,-0.486175 -0.439056,-0.486175 -0.09638,0 -0.186332,0.02998 -0.265576,0.0921 v -0.0921 l -0.379088,0.01713 v 0.100662 c 0.04069,0 0.08353,0 0.107087,0.0043 0.04069,0.0064 0.04069,0.02356 0.04069,0.06639 v 1.090145 h -0.14778 v 0.100662 l 0.269859,-0.0064 0.269859,0.0064 v -0.100662 h -0.14778 v -0.379088 c 0.06425,0.0514 0.139213,0.0771 0.2206,0.0771 0.252725,0 0.471182,-0.167056 0.471182,-0.490459 z m -0.274142,0 c 0,0.299844 -0.111371,0.413356 -0.216316,0.413356 -0.09424,0 -0.160631,-0.06211 -0.201324,-0.126362 v -0.567562 c 0.05354,-0.06639 0.126363,-0.119937 0.222741,-0.119937 0.109229,0 0.194899,0.137071 0.194899,0.400505 z"
             style="font-style:normal;font-variant:normal;font-weight:normal;font-stretch:normal;font-family:'Latin Modern Roman Demi';-inkscape-font-specification:'Latin Modern Roman Demi';stroke-width:0.0535433"
             id="path929" />
          <path
             d="m 20.70436,15.312809 v -0.117796 h -0.100662 v 0.115654 c 0,0.115654 -0.03427,0.190615 -0.09638,0.190615 -0.09638,0 -0.09638,-0.139213 -0.09638,-0.179906 v -0.597545 h 0.259151 V 14.623169 H 20.410941 V 14.214096 H 20.31028 c -0.0021,0.179907 -0.06211,0.424065 -0.278427,0.432632 v 0.0771 h 0.13493 v 0.586836 c 0,0.231308 0.173481,0.276285 0.312694,0.276285 0.162772,0 0.224883,-0.145638 0.224883,-0.274143 z"
             style="font-style:normal;font-variant:normal;font-weight:normal;font-stretch:normal;font-family:'Latin Modern Roman Demi';-inkscape-font-specification:'Latin Modern Roman Demi';stroke-width:0.0535433"
             id="path931" />
          <path
             d="M 21.393999,15.574101 V 15.47344 h -0.132788 v -0.863122 l -0.372663,0.01713 v 0.100662 c 0.126363,0 0.141355,0 0.141355,0.08353 v 0.661798 h -0.14778 v 0.100661 l 0.261292,-0.0064 z m -0.102803,-1.304319 c 0,-0.08995 -0.07496,-0.167056 -0.167056,-0.167056 -0.100662,0 -0.169198,0.08139 -0.169198,0.167056 0,0.08995 0.07496,0.167055 0.167056,0.167055 0.100662,0 0.169198,-0.08139 0.169198,-0.167055 z"
             style="font-style:normal;font-variant:normal;font-weight:normal;font-stretch:normal;font-family:'Latin Modern Roman Demi';-inkscape-font-specification:'Latin Modern Roman Demi';stroke-width:0.0535433"
             id="path933" />
          <path
             d="m 22.430601,15.10506 c 0,-0.301985 -0.188473,-0.501167 -0.475466,-0.501167 -0.276285,0 -0.473325,0.190615 -0.473325,0.501167 0,0.308411 0.201324,0.481892 0.473325,0.481892 0.28271,0 0.475466,-0.182048 0.475466,-0.481892 z m -0.274143,-0.02142 c 0,0.100662 0,0.212032 -0.02142,0.284851 -0.02142,0.08353 -0.100662,0.132788 -0.177764,0.132788 -0.07925,0 -0.160631,-0.04712 -0.18419,-0.141355 -0.01713,-0.07068 -0.01713,-0.201323 -0.01713,-0.276284 0,-0.100662 0,-0.203465 0.01928,-0.272001 0.02142,-0.08139 0.100662,-0.130646 0.179906,-0.130646 0.0921,0 0.162772,0.06211 0.182048,0.130646 0.01928,0.07068 0.01928,0.173481 0.01928,0.272001 z"
             style="font-style:normal;font-variant:normal;font-weight:normal;font-stretch:normal;font-family:'Latin Modern Roman Demi';-inkscape-font-specification:'Latin Modern Roman Demi';stroke-width:0.0535433"
             id="path935" />
          <path
             d="M 23.67709,15.574101 V 15.47344 h -0.147781 v -0.561136 c 0,-0.160631 -0.0514,-0.301986 -0.289134,-0.301986 -0.154206,0 -0.263434,0.08781 -0.325545,0.216316 h -0.0021 v -0.216316 l -0.368379,0.01713 v 0.100662 c 0.132788,0 0.14778,0 0.14778,0.08353 v 0.661798 h -0.14778 v 0.100661 l 0.269859,-0.0064 0.26986,0.0064 V 15.47344 h -0.147781 v -0.447624 c 0,-0.237733 0.164914,-0.338395 0.272001,-0.338395 0.03427,0 0.0771,0.01071 0.0771,0.199182 v 0.586837 h -0.139213 v 0.100661 l 0.263434,-0.0064 z"
             style="font-style:normal;font-variant:normal;font-weight:normal;font-stretch:normal;font-family:'Latin Modern Roman Demi';-inkscape-font-specification:'Latin Modern Roman Demi';stroke-width:0.0535433"
             id="path937" />
          <path
             d="m 25.249123,14.261215 c 0,-0.08995 -0.07496,-0.186332 -0.229166,-0.186332 -0.19704,0 -0.41764,0.08781 -0.41764,0.33197 v 0.216316 h -0.12422 v 0.100662 h 0.12422 v 0.749609 h -0.14778 v 0.100661 l 0.26986,-0.0064 c 0.08139,0 0.218457,0 0.29556,0.0064 V 15.47344 h -0.186332 v -0.749609 h 0.199182 v -0.100662 h -0.212032 v -0.218458 c 0,-0.250583 0.169197,-0.252725 0.192757,-0.252725 0.0064,0 0.01499,0 0.02356,0.0021 -0.02142,0.01499 -0.0514,0.0514 -0.0514,0.107087 0,0.0921 0.07496,0.132788 0.130646,0.132788 0.06425,0 0.132788,-0.04498 0.132788,-0.132788 z"
             style="font-style:normal;font-variant:normal;font-weight:normal;font-stretch:normal;font-family:'Latin Modern Roman Demi';-inkscape-font-specification:'Latin Modern Roman Demi';stroke-width:0.0535433"
             id="path939" />
          <path
             d="m 26.060841,15.10506 c 0,-0.301985 -0.188473,-0.501167 -0.475467,-0.501167 -0.276284,0 -0.473324,0.190615 -0.473324,0.501167 0,0.308411 0.201323,0.481892 0.473324,0.481892 0.28271,0 0.475467,-0.182048 0.475467,-0.481892 z m -0.274143,-0.02142 c 0,0.100662 0,0.212032 -0.02142,0.284851 -0.02142,0.08353 -0.100662,0.132788 -0.177765,0.132788 -0.07924,0 -0.16063,-0.04712 -0.18419,-0.141355 -0.01713,-0.07068 -0.01713,-0.201323 -0.01713,-0.276284 0,-0.100662 0,-0.203465 0.01928,-0.272001 0.02142,-0.08139 0.100662,-0.130646 0.179906,-0.130646 0.09209,0 0.162773,0.06211 0.182048,0.130646 0.01928,0.07068 0.01928,0.173481 0.01928,0.272001 z"
             style="font-style:normal;font-variant:normal;font-weight:normal;font-stretch:normal;font-family:'Latin Modern Roman Demi';-inkscape-font-specification:'Latin Modern Roman Demi';stroke-width:0.0535433"
             id="path941" />
          <path
             d="m 26.979645,14.785941 c 0,-0.119937 -0.126363,-0.175623 -0.229167,-0.175623 -0.09852,0 -0.188473,0.0514 -0.235591,0.194899 h -0.0021 v -0.194899 l -0.355529,0.01713 v 0.100662 c 0.132788,0 0.147781,0 0.147781,0.08353 v 0.661798 h -0.147781 v 0.100661 l 0.26986,-0.0064 c 0.08139,0 0.218457,0 0.29556,0.0064 V 15.47344 h -0.186332 v -0.383372 c 0,-0.16063 0.03213,-0.402647 0.222741,-0.402647 0,0 -0.04069,0.03641 -0.04069,0.09852 0,0.08781 0.06854,0.130646 0.130647,0.130646 0.06211,0 0.130646,-0.04498 0.130646,-0.130646 z"
             style="font-style:normal;font-variant:normal;font-weight:normal;font-stretch:normal;font-family:'Latin Modern Roman Demi';-inkscape-font-specification:'Latin Modern Roman Demi';stroke-width:0.0535433"
             id="path943" />
          <path
             d="m 29.095678,14.987265 h -0.100662 c -0.04498,0.278426 -0.08781,0.486175 -0.44334,0.486175 h -0.2206 v -0.603971 h 0.04712 c 0.194898,0 0.203465,0.09424 0.203465,0.250584 h 0.100662 V 14.518224 H 28.58166 c 0,0.156347 -0.0086,0.250583 -0.203465,0.250583 h -0.04712 V 14.21838 h 0.212033 c 0.331969,0 0.359812,0.175623 0.391938,0.415498 h 0.100662 l -0.06639,-0.51616 h -1.143689 v 0.100662 h 0.201323 v 1.25506 h -0.201323 v 0.100661 h 1.171532 z"
             style="font-style:normal;font-variant:normal;font-weight:normal;font-stretch:normal;font-family:'Latin Modern Roman Demi';-inkscape-font-specification:'Latin Modern Roman Demi';stroke-width:0.0535433"
             id="path945" />
          <path
             d="M 30.312182,15.574101 V 15.47344 c -0.132788,0 -0.14778,0 -0.14778,-0.08353 v -1.302178 l -0.379088,0.01713 v 0.100662 c 0.132788,0 0.14778,0 0.14778,0.08353 v 0.402648 c -0.09638,-0.07496 -0.184189,-0.08139 -0.235591,-0.08139 -0.254867,0 -0.469041,0.17134 -0.469041,0.488317 0,0.325545 0.20989,0.488317 0.447624,0.488317 0.08781,0 0.171339,-0.02784 0.244158,-0.08781 v 0.08781 z m -0.391938,-0.201323 c -0.04926,0.0771 -0.128504,0.137071 -0.224883,0.137071 -0.07924,0 -0.141355,-0.05354 -0.169197,-0.134929 -0.02356,-0.07282 -0.02356,-0.199182 -0.02356,-0.274143 0,-0.08567 0,-0.199182 0.0257,-0.274143 0.03213,-0.08567 0.102804,-0.139213 0.190615,-0.139213 0.06639,0 0.143497,0.03213 0.201324,0.113512 z"
             style="font-style:normal;font-variant:normal;font-weight:normal;font-stretch:normal;font-family:'Latin Modern Roman Demi';-inkscape-font-specification:'Latin Modern Roman Demi';stroke-width:0.0535433"
             id="path947" />
          <path
             d="M 31.532974,15.574101 V 15.47344 c -0.132788,0 -0.14778,0 -0.14778,-0.08353 v -0.779594 l -0.391938,0.01713 v 0.100662 c 0.132787,0 0.14778,0 0.14778,0.08353 v 0.413356 c 0,0.154205 -0.07496,0.284851 -0.212033,0.284851 -0.134929,0 -0.137071,-0.04712 -0.137071,-0.16063 v -0.738901 l -0.391938,0.01713 v 0.100662 c 0.132787,0 0.14778,0 0.14778,0.08353 v 0.501167 c 0,0.214174 0.143496,0.274143 0.351245,0.274143 0.05569,0 0.171339,0 0.252725,-0.145638 h 0.0021 v 0.145638 z"
             style="font-style:normal;font-variant:normal;font-weight:normal;font-stretch:normal;font-family:'Latin Modern Roman Demi';-inkscape-font-specification:'Latin Modern Roman Demi';stroke-width:0.0535433"
             id="path949" />
          <path
             d="m 32.428219,15.323518 c 0,-0.02998 -0.02998,-0.02998 -0.0514,-0.02998 -0.03213,0 -0.04069,0.0021 -0.04926,0.02784 -0.01499,0.04283 -0.06211,0.179906 -0.2206,0.179906 -0.0771,0 -0.143496,-0.04712 -0.182048,-0.130646 -0.03855,-0.08353 -0.04069,-0.179906 -0.04069,-0.28271 0,-0.132787 0,-0.398363 0.199182,-0.398363 0.03855,0 0.06211,0.0043 0.09638,0.01071 -0.01928,0.01713 -0.04283,0.0514 -0.04283,0.100662 0,0.09424 0.07496,0.13493 0.132788,0.13493 0.06639,0 0.134929,-0.04498 0.134929,-0.13493 0,-0.141355 -0.158489,-0.19704 -0.327686,-0.19704 -0.28271,0 -0.466899,0.194899 -0.466899,0.494742 0,0.316978 0.207748,0.488317 0.460474,0.488317 0.291276,0 0.35767,-0.239875 0.35767,-0.263434 z"
             style="font-style:normal;font-variant:normal;font-weight:normal;font-stretch:normal;font-family:'Latin Modern Roman Demi';-inkscape-font-specification:'Latin Modern Roman Demi';stroke-width:0.0535433"
             id="path951" />
          <path
             d="m 33.518364,15.5227 c 0,-0.04284 -0.02142,-0.04712 -0.04498,-0.04926 -0.100661,-0.0064 -0.100661,-0.03427 -0.100661,-0.07925 v -0.462616 c 0,-0.203465 -0.158489,-0.327686 -0.421923,-0.327686 -0.07068,0 -0.351245,0.0043 -0.351245,0.19704 0,0.09424 0.07496,0.13493 0.132787,0.13493 0.06639,0 0.13493,-0.04498 0.13493,-0.13493 0,-0.06854 -0.04926,-0.107087 -0.04926,-0.107087 0.04498,-0.0086 0.06211,-0.01285 0.126363,-0.01285 0.128504,0 0.184189,0.102803 0.184189,0.248442 v 0.0771 c -0.30841,0.0064 -0.588978,0.109229 -0.588978,0.334112 0,0.177764 0.201323,0.2463 0.361954,0.2463 0.130646,0 0.218457,-0.07496 0.263434,-0.171339 0,0.04498 0,0.158488 0.194898,0.158488 h 0.08995 c 0.04284,0 0.06854,0 0.06854,-0.0514 z m -0.389797,-0.244159 c 0,0.18419 -0.139213,0.231308 -0.201323,0.231308 -0.08781,0 -0.137072,-0.08781 -0.137072,-0.169197 0,-0.235592 0.28271,-0.261293 0.338395,-0.265576 z"
             style="font-style:normal;font-variant:normal;font-weight:normal;font-stretch:normal;font-family:'Latin Modern Roman Demi';-inkscape-font-specification:'Latin Modern Roman Demi';stroke-width:0.0535433"
             id="path953" />
          <path
             d="m 34.24441,15.312809 v -0.117796 h -0.100661 v 0.115654 c 0,0.115654 -0.03427,0.190615 -0.09638,0.190615 -0.09638,0 -0.09638,-0.139213 -0.09638,-0.179906 v -0.597545 h 0.259151 V 14.623169 H 33.950992 V 14.214096 H 33.85033 c -0.0021,0.179907 -0.06211,0.424065 -0.278426,0.432632 v 0.0771 h 0.13493 v 0.586836 c 0,0.231308 0.173481,0.276285 0.312694,0.276285 0.162772,0 0.224882,-0.145638 0.224882,-0.274143 z"
             style="font-style:normal;font-variant:normal;font-weight:normal;font-stretch:normal;font-family:'Latin Modern Roman Demi';-inkscape-font-specification:'Latin Modern Roman Demi';stroke-width:0.0535433"
             id="path955" />
          <path
             d="M 34.93405,15.574101 V 15.47344 h -0.132788 v -0.863122 l -0.372663,0.01713 v 0.100662 c 0.126363,0 0.141355,0 0.141355,0.08353 v 0.661798 h -0.14778 v 0.100661 l 0.261292,-0.0064 z m -0.102804,-1.304319 c 0,-0.08995 -0.07496,-0.167056 -0.167056,-0.167056 -0.100661,0 -0.169197,0.08139 -0.169197,0.167056 0,0.08995 0.07496,0.167055 0.167056,0.167055 0.100661,0 0.169197,-0.08139 0.169197,-0.167055 z"
             style="font-style:normal;font-variant:normal;font-weight:normal;font-stretch:normal;font-family:'Latin Modern Roman Demi';-inkscape-font-specification:'Latin Modern Roman Demi';stroke-width:0.0535433"
             id="path957" />
          <path
             d="m 35.97065,15.10506 c 0,-0.301985 -0.188473,-0.501167 -0.475466,-0.501167 -0.276285,0 -0.473325,0.190615 -0.473325,0.501167 0,0.308411 0.201324,0.481892 0.473325,0.481892 0.282709,0 0.475466,-0.182048 0.475466,-0.481892 z m -0.274143,-0.02142 c 0,0.100662 0,0.212032 -0.02142,0.284851 -0.02142,0.08353 -0.100662,0.132788 -0.177765,0.132788 -0.07924,0 -0.16063,-0.04712 -0.184189,-0.141355 -0.01713,-0.07068 -0.01713,-0.201323 -0.01713,-0.276284 0,-0.100662 0,-0.203465 0.01928,-0.272001 0.02142,-0.08139 0.100662,-0.130646 0.179907,-0.130646 0.09209,0 0.162772,0.06211 0.182047,0.130646 0.01928,0.07068 0.01928,0.173481 0.01928,0.272001 z"
             style="font-style:normal;font-variant:normal;font-weight:normal;font-stretch:normal;font-family:'Latin Modern Roman Demi';-inkscape-font-specification:'Latin Modern Roman Demi';stroke-width:0.0535433"
             id="path959" />
          <path
             d="M 37.217138,15.574101 V 15.47344 h -0.14778 v -0.561136 c 0,-0.160631 -0.0514,-0.301986 -0.289135,-0.301986 -0.154205,0 -0.263434,0.08781 -0.325544,0.216316 h -0.0021 v -0.216316 l -0.368379,0.01713 v 0.100662 c 0.132787,0 0.14778,0 0.14778,0.08353 v 0.661798 h -0.14778 v 0.100661 l 0.269859,-0.0064 0.269859,0.0064 V 15.47344 h -0.14778 v -0.447624 c 0,-0.237733 0.164914,-0.338395 0.272001,-0.338395 0.03427,0 0.0771,0.01071 0.0771,0.199182 v 0.586837 h -0.139213 v 0.100661 l 0.263434,-0.0064 z"
             style="font-style:normal;font-variant:normal;font-weight:normal;font-stretch:normal;font-family:'Latin Modern Roman Demi';-inkscape-font-specification:'Latin Modern Roman Demi';stroke-width:0.0535433"
             id="path961" />
          <path
             d="m 39.493804,14.723831 v -0.100662 c -0.06854,0.0043 -0.154205,0.0064 -0.212032,0.0064 -0.02356,0 -0.203466,-0.0021 -0.261293,-0.0064 v 0.100662 c 0.02142,0 0.164914,0 0.164914,0.0257 0,0.01071 -0.126362,0.218457 -0.143496,0.248441 -0.03641,0.06425 -0.09852,0.162773 -0.171339,0.248442 -0.07496,-0.08995 -0.2463,-0.30841 -0.321261,-0.4926 0.03427,-0.03427 0.261292,-0.250584 0.261292,-0.409072 0,-0.109229 -0.05354,-0.280568 -0.212032,-0.280568 -0.162773,0 -0.355529,0.132788 -0.355529,0.379088 0,0.171339 0.05354,0.336253 0.08781,0.419781 -0.0086,0.0064 -0.109229,0.107087 -0.132788,0.130646 -0.04069,0.04069 -0.107087,0.107087 -0.117795,0.124221 -0.04926,0.06854 -0.05354,0.128504 -0.05354,0.162772 0,0.179906 0.173481,0.316978 0.387655,0.316978 0.158489,0 0.286993,-0.06854 0.374805,-0.137072 0.09638,0.07282 0.239874,0.137072 0.387655,0.137072 0.169197,0 0.299843,-0.113513 0.304127,-0.276285 h -0.100662 c -0.0086,0.145638 -0.143497,0.175623 -0.190615,0.175623 -0.111371,0 -0.2463,-0.162772 -0.257009,-0.175623 0.113512,-0.132788 0.199182,-0.280568 0.29556,-0.445482 0.0064,-0.01499 0.03641,-0.06639 0.04926,-0.08567 0.02999,-0.0514 0.03213,-0.05354 0.0771,-0.05997 0.04712,-0.0064 0.115654,-0.0064 0.139213,-0.0064 z m -0.783877,-0.38123 c 0,0.06854 -0.02998,0.16063 -0.190615,0.329828 -0.03213,-0.09209 -0.05354,-0.207749 -0.05354,-0.308411 0,-0.175622 0.08353,-0.222741 0.137071,-0.222741 0.102804,0 0.107087,0.182048 0.107087,0.201324 z m 0.0021,1.05802 c -0.07282,0.0514 -0.167056,0.09638 -0.276285,0.09638 -0.06211,0 -0.134929,-0.02784 -0.134929,-0.29556 0,-0.04926 0,-0.179906 0.06425,-0.263434 0.08567,0.175622 0.203465,0.331969 0.346962,0.462616 z"
             style="font-style:normal;font-variant:normal;font-weight:normal;font-stretch:normal;font-family:'Latin Modern Roman Demi';-inkscape-font-specification:'Latin Modern Roman Demi';stroke-width:0.0535433"
             id="path963" />
          <path
             d="m 41.656959,14.522507 c 0,-0.23345 -0.179906,-0.417639 -0.499025,-0.417639 h -0.768885 v 0.100662 h 0.201324 v 1.26791 h -0.201324 v 0.100661 c 0.07496,-0.0064 0.267717,-0.0064 0.353387,-0.0064 0.08567,0 0.278426,0 0.353387,0.0064 V 15.47344 H 40.8945 v -0.546144 h 0.282709 c 0.263434,0 0.47975,-0.149922 0.47975,-0.404789 z m -0.327686,0 c 0,0.18419 0,0.316978 -0.259151,0.316978 H 40.881649 V 14.20553 h 0.188473 c 0.259151,0 0.259151,0.130646 0.259151,0.316977 z"
             style="font-style:normal;font-variant:normal;font-weight:normal;font-stretch:normal;font-family:'Latin Modern Roman Demi';-inkscape-font-specification:'Latin Modern Roman Demi';stroke-width:0.0535433"
             id="path965" />
          <path
             d="m 42.635729,14.785941 c 0,-0.119937 -0.126363,-0.175623 -0.229166,-0.175623 -0.09852,0 -0.188474,0.0514 -0.235592,0.194899 h -0.0021 v -0.194899 l -0.355528,0.01713 v 0.100662 c 0.132787,0 0.14778,0 0.14778,0.08353 v 0.661798 h -0.14778 v 0.100661 l 0.269859,-0.0064 c 0.08139,0 0.218457,0 0.29556,0.0064 V 15.47344 h -0.186331 v -0.383372 c 0,-0.16063 0.03213,-0.402647 0.222741,-0.402647 0,0 -0.04069,0.03641 -0.04069,0.09852 0,0.08781 0.06854,0.130646 0.130647,0.130646 0.06211,0 0.130646,-0.04498 0.130646,-0.130646 z"
             style="font-style:normal;font-variant:normal;font-weight:normal;font-stretch:normal;font-family:'Latin Modern Roman Demi';-inkscape-font-specification:'Latin Modern Roman Demi';stroke-width:0.0535433"
             id="path967" />
          <path
             d="m 43.704456,15.10506 c 0,-0.301985 -0.188473,-0.501167 -0.475466,-0.501167 -0.276284,0 -0.473324,0.190615 -0.473324,0.501167 0,0.308411 0.201323,0.481892 0.473324,0.481892 0.28271,0 0.475466,-0.182048 0.475466,-0.481892 z m -0.274142,-0.02142 c 0,0.100662 0,0.212032 -0.02142,0.284851 -0.02142,0.08353 -0.100662,0.132788 -0.177764,0.132788 -0.07925,0 -0.160631,-0.04712 -0.18419,-0.141355 -0.01713,-0.07068 -0.01713,-0.201323 -0.01713,-0.276284 0,-0.100662 0,-0.203465 0.01928,-0.272001 0.02142,-0.08139 0.100662,-0.130646 0.179906,-0.130646 0.09209,0 0.162772,0.06211 0.182048,0.130646 0.01928,0.07068 0.01928,0.173481 0.01928,0.272001 z"
             style="font-style:normal;font-variant:normal;font-weight:normal;font-stretch:normal;font-family:'Latin Modern Roman Demi';-inkscape-font-specification:'Latin Modern Roman Demi';stroke-width:0.0535433"
             id="path969" />
          <path
             d="m 44.805306,14.723831 c 0,-0.04926 -0.03213,-0.124221 -0.119937,-0.124221 -0.03213,0 -0.109229,0.0064 -0.190615,0.07924 -0.08567,-0.05997 -0.192757,-0.06854 -0.252725,-0.06854 -0.259151,0 -0.385513,0.149922 -0.385513,0.316978 0,0.0921 0.04069,0.177764 0.102803,0.227024 -0.06639,0.08567 -0.07282,0.164914 -0.07282,0.19704 0,0.02356 0.0043,0.130647 0.08781,0.199182 -0.03427,0.01285 -0.152063,0.06211 -0.152063,0.18419 0,0.104945 0.09852,0.269859 0.477608,0.269859 0.336253,0 0.47975,-0.130646 0.47975,-0.278426 0,-0.329828 -0.304128,-0.329828 -0.552569,-0.329828 h -0.124221 c -0.05569,-0.0043 -0.111371,-0.0514 -0.111371,-0.130646 0,-0.04926 0.01928,-0.07496 0.01928,-0.07496 0.02784,0.01499 0.104945,0.05354 0.231308,0.05354 0.261292,0 0.385513,-0.152063 0.385513,-0.316977 0,-0.109229 -0.05783,-0.18419 -0.07924,-0.207749 0.0257,-0.01713 0.04926,-0.0257 0.07924,-0.03427 -0.0021,0.0064 -0.0064,0.01713 -0.0064,0.03855 0,0.05354 0.03641,0.09209 0.0921,0.09209 0.05569,0 0.09209,-0.04069 0.09209,-0.09209 z m -0.415497,0.203465 c 0,0.109229 0,0.239875 -0.14778,0.239875 -0.14778,0 -0.14778,-0.132788 -0.14778,-0.239875 0,-0.109229 0,-0.239875 0.14778,-0.239875 0.14778,0 0.14778,0.132788 0.14778,0.239875 z m 0.205607,0.807436 c 0,0.08353 -0.07068,0.192757 -0.293419,0.192757 -0.214174,0 -0.29556,-0.09852 -0.29556,-0.197041 0,-0.128504 0.09424,-0.128504 0.130646,-0.128504 h 0.201324 c 0.164914,0 0.257009,0.03641 0.257009,0.132788 z"
             style="font-style:normal;font-variant:normal;font-weight:normal;font-stretch:normal;font-family:'Latin Modern Roman Demi';-inkscape-font-specification:'Latin Modern Roman Demi';stroke-width:0.0535433"
             id="path971" />
          <path
             d="m 45.694124,14.785941 c 0,-0.119937 -0.126363,-0.175623 -0.229166,-0.175623 -0.09852,0 -0.188473,0.0514 -0.235591,0.194899 h -0.0021 v -0.194899 l -0.355529,0.01713 v 0.100662 c 0.132788,0 0.14778,0 0.14778,0.08353 v 0.661798 h -0.14778 v 0.100661 l 0.269859,-0.0064 c 0.08139,0 0.218458,0 0.29556,0.0064 V 15.47344 h -0.186331 v -0.383372 c 0,-0.16063 0.03213,-0.402647 0.222741,-0.402647 0,0 -0.04069,0.03641 -0.04069,0.09852 0,0.08781 0.06854,0.130646 0.130646,0.130646 0.06211,0 0.130646,-0.04498 0.130646,-0.130646 z"
             style="font-style:normal;font-variant:normal;font-weight:normal;font-stretch:normal;font-family:'Latin Modern Roman Demi';-inkscape-font-specification:'Latin Modern Roman Demi';stroke-width:0.0535433"
             id="path973" />
          <path
             d="m 46.782127,15.5227 c 0,-0.04284 -0.02142,-0.04712 -0.04498,-0.04926 -0.100662,-0.0064 -0.100662,-0.03427 -0.100662,-0.07925 v -0.462616 c 0,-0.203465 -0.158489,-0.327686 -0.421923,-0.327686 -0.07068,0 -0.351245,0.0043 -0.351245,0.19704 0,0.09424 0.07496,0.13493 0.132788,0.13493 0.06639,0 0.134929,-0.04498 0.134929,-0.13493 0,-0.06854 -0.04926,-0.107087 -0.04926,-0.107087 0.04498,-0.0086 0.06211,-0.01285 0.126363,-0.01285 0.128505,0 0.18419,0.102803 0.18419,0.248442 v 0.0771 c -0.308411,0.0064 -0.588979,0.109229 -0.588979,0.334112 0,0.177764 0.201324,0.2463 0.361954,0.2463 0.130646,0 0.218458,-0.07496 0.263434,-0.171339 0,0.04498 0,0.158488 0.194899,0.158488 h 0.08995 c 0.04284,0 0.06854,0 0.06854,-0.0514 z m -0.389796,-0.244159 c 0,0.18419 -0.139213,0.231308 -0.201324,0.231308 -0.08781,0 -0.137071,-0.08781 -0.137071,-0.169197 0,-0.235592 0.28271,-0.261293 0.338395,-0.265576 z"
             style="font-style:normal;font-variant:normal;font-weight:normal;font-stretch:normal;font-family:'Latin Modern Roman Demi';-inkscape-font-specification:'Latin Modern Roman Demi';stroke-width:0.0535433"
             id="path975" />
          <path
             d="M 48.572619,15.574101 V 15.47344 h -0.14778 v -0.561136 c 0,-0.160631 -0.0514,-0.301986 -0.289135,-0.301986 -0.152064,0 -0.254867,0.08353 -0.312694,0.194899 -0.04069,-0.188473 -0.212033,-0.194899 -0.280568,-0.194899 -0.154206,0 -0.263434,0.08781 -0.325545,0.216316 h -0.0021 v -0.216316 l -0.368379,0.01713 v 0.100662 c 0.132788,0 0.14778,0 0.14778,0.08353 v 0.661798 h -0.14778 v 0.100661 l 0.269859,-0.0064 0.26986,0.0064 V 15.47344 h -0.14778 v -0.447624 c 0,-0.237733 0.164914,-0.338395 0.272001,-0.338395 0.03427,0 0.0771,0.01071 0.0771,0.199182 v 0.586837 h -0.139213 v 0.100661 l 0.263434,-0.0064 0.267718,0.0064 V 15.47344 h -0.14778 v -0.447624 c 0,-0.237733 0.164914,-0.338395 0.272001,-0.338395 0.03427,0 0.0771,0.01071 0.0771,0.199182 v 0.586837 h -0.139213 v 0.100661 l 0.263434,-0.0064 z"
             style="font-style:normal;font-variant:normal;font-weight:normal;font-stretch:normal;font-family:'Latin Modern Roman Demi';-inkscape-font-specification:'Latin Modern Roman Demi';stroke-width:0.0535433"
             id="path977" />
          <path
             d="m 50.699359,14.644586 -0.04498,-0.516159 h -1.240067 l -0.04498,0.516159 H 49.47 c 0.01928,-0.235591 0.03427,-0.415497 0.30841,-0.415497 h 0.104946 v 1.244351 h -0.286994 v 0.100661 c 0.102804,-0.0064 0.325545,-0.0064 0.439057,-0.0064 0.113512,0 0.336253,0 0.439057,0.0064 V 15.47344 h -0.286993 v -1.244351 h 0.102803 c 0.274143,0 0.289135,0.177764 0.308411,0.415497 z"
             style="font-style:normal;font-variant:normal;font-weight:normal;font-stretch:normal;font-family:'Latin Modern Roman Demi';-inkscape-font-specification:'Latin Modern Roman Demi';stroke-width:0.0535433"
             id="path979" />
          <path
             d="m 51.538919,15.323518 c 0,-0.03855 -0.04069,-0.03855 -0.0514,-0.03855 -0.03641,0 -0.04069,0.01071 -0.0514,0.04069 -0.0514,0.130646 -0.175622,0.175622 -0.261292,0.175622 -0.239875,0 -0.239875,-0.267717 -0.239875,-0.39408 h 0.535435 c 0.05354,0 0.06854,-0.0021 0.06854,-0.06211 0,-0.190615 -0.0771,-0.441199 -0.409072,-0.441199 -0.276285,0 -0.469042,0.188473 -0.469042,0.488317 0,0.310552 0.214174,0.494742 0.494742,0.494742 0.286994,0 0.383372,-0.218458 0.383372,-0.263434 z m -0.203465,-0.286993 h -0.400506 c 0.0021,-0.109229 0.0086,-0.355529 0.19704,-0.355529 0.203466,0 0.203466,0.306269 0.203466,0.355529 z"
             style="font-style:normal;font-variant:normal;font-weight:normal;font-stretch:normal;font-family:'Latin Modern Roman Demi';-inkscape-font-specification:'Latin Modern Roman Demi';stroke-width:0.0535433"
             id="path981" />
          <path
             d="m 52.372054,15.2764 c 0,-0.126363 -0.06639,-0.192757 -0.09638,-0.2206 -0.07068,-0.07068 -0.14778,-0.08567 -0.235592,-0.102803 -0.100662,-0.02142 -0.216316,-0.04284 -0.216316,-0.14778 0,-0.130646 0.149922,-0.132788 0.190615,-0.132788 0.188473,0 0.199182,0.137071 0.203466,0.182048 0.0021,0.03213 0.0064,0.04069 0.04926,0.04069 0.0514,0 0.0514,-0.01071 0.0514,-0.05997 v -0.171339 c 0,-0.04069 0,-0.05997 -0.03855,-0.05997 -0.01713,0 -0.05997,0.02356 -0.08781,0.03855 -0.03641,-0.02142 -0.09638,-0.03855 -0.177765,-0.03855 -0.154205,0 -0.342678,0.05354 -0.342678,0.280568 0,0.104945 0.05783,0.160631 0.08353,0.186332 0.06854,0.06854 0.149922,0.08567 0.248442,0.104945 0.08567,0.01713 0.216315,0.04283 0.216315,0.175622 0,0.126363 -0.09638,0.158489 -0.192756,0.158489 -0.154206,0 -0.216316,-0.100662 -0.252726,-0.242016 -0.0086,-0.02998 -0.01071,-0.03641 -0.0514,-0.03641 -0.0514,0 -0.0514,0.01285 -0.0514,0.06211 v 0.23345 c 0,0.04069 0,0.05997 0.03855,0.05997 0.01499,0 0.01928,0 0.05783,-0.0257 0.01071,-0.0086 0.04069,-0.02784 0.0514,-0.03427 0.08567,0.05997 0.175623,0.05997 0.207749,0.05997 0.263434,0 0.34482,-0.149922 0.34482,-0.310552 z"
             style="font-style:normal;font-variant:normal;font-weight:normal;font-stretch:normal;font-family:'Latin Modern Roman Demi';-inkscape-font-specification:'Latin Modern Roman Demi';stroke-width:0.0535433"
             id="path983" />
          <path
             d="m 53.158068,15.312809 v -0.117796 h -0.100661 v 0.115654 c 0,0.115654 -0.03427,0.190615 -0.09638,0.190615 -0.09638,0 -0.09638,-0.139213 -0.09638,-0.179906 v -0.597545 h 0.259151 V 14.623169 H 52.86465 v -0.409073 h -0.100662 c -0.0021,0.179907 -0.06211,0.424065 -0.278426,0.432632 v 0.0771 h 0.13493 v 0.586836 c 0,0.231308 0.173481,0.276285 0.312694,0.276285 0.162772,0 0.224882,-0.145638 0.224882,-0.274143 z"
             style="font-style:normal;font-variant:normal;font-weight:normal;font-stretch:normal;font-family:'Latin Modern Roman Demi';-inkscape-font-specification:'Latin Modern Roman Demi';stroke-width:0.0535433"
             id="path985" />
          <path
             d="M 53.847708,15.574101 V 15.47344 H 53.71492 v -0.863122 l -0.372663,0.01713 v 0.100662 c 0.126363,0 0.141355,0 0.141355,0.08353 v 0.661798 h -0.14778 v 0.100661 l 0.261292,-0.0064 z m -0.102804,-1.304319 c 0,-0.08995 -0.07496,-0.167056 -0.167056,-0.167056 -0.100661,0 -0.169197,0.08139 -0.169197,0.167056 0,0.08995 0.07496,0.167055 0.167056,0.167055 0.100662,0 0.169197,-0.08139 0.169197,-0.167055 z"
             style="font-style:normal;font-variant:normal;font-weight:normal;font-stretch:normal;font-family:'Latin Modern Roman Demi';-inkscape-font-specification:'Latin Modern Roman Demi';stroke-width:0.0535433"
             id="path987" />
          <path
             d="M 55.059934,15.574101 V 15.47344 h -0.14778 v -0.561136 c 0,-0.160631 -0.0514,-0.301986 -0.289135,-0.301986 -0.154205,0 -0.263434,0.08781 -0.325544,0.216316 h -0.0021 v -0.216316 l -0.368379,0.01713 v 0.100662 c 0.132788,0 0.14778,0 0.14778,0.08353 v 0.661798 h -0.14778 v 0.100661 l 0.269859,-0.0064 0.269859,0.0064 V 15.47344 h -0.14778 v -0.447624 c 0,-0.237733 0.164914,-0.338395 0.272001,-0.338395 0.03427,0 0.0771,0.01071 0.0771,0.199182 v 0.586837 h -0.139213 v 0.100661 l 0.263434,-0.0064 z"
             style="font-style:normal;font-variant:normal;font-weight:normal;font-stretch:normal;font-family:'Latin Modern Roman Demi';-inkscape-font-specification:'Latin Modern Roman Demi';stroke-width:0.0535433"
             id="path989" />
          <path
             d="m 56.105103,14.723831 c 0,-0.04926 -0.03213,-0.124221 -0.119937,-0.124221 -0.03213,0 -0.109229,0.0064 -0.190615,0.07924 -0.08567,-0.05997 -0.192756,-0.06854 -0.252725,-0.06854 -0.259151,0 -0.385513,0.149922 -0.385513,0.316978 0,0.0921 0.04069,0.177764 0.102803,0.227024 -0.06639,0.08567 -0.07282,0.164914 -0.07282,0.19704 0,0.02356 0.0043,0.130647 0.08781,0.199182 -0.03427,0.01285 -0.152063,0.06211 -0.152063,0.18419 0,0.104945 0.09852,0.269859 0.477608,0.269859 0.336253,0 0.47975,-0.130646 0.47975,-0.278426 0,-0.329828 -0.304128,-0.329828 -0.552569,-0.329828 h -0.124221 c -0.05569,-0.0043 -0.111371,-0.0514 -0.111371,-0.130646 0,-0.04926 0.01928,-0.07496 0.01928,-0.07496 0.02784,0.01499 0.104945,0.05354 0.231308,0.05354 0.261292,0 0.385513,-0.152063 0.385513,-0.316977 0,-0.109229 -0.05783,-0.18419 -0.07924,-0.207749 0.0257,-0.01713 0.04926,-0.0257 0.07924,-0.03427 -0.0021,0.0064 -0.0064,0.01713 -0.0064,0.03855 0,0.05354 0.03641,0.09209 0.09209,0.09209 0.05569,0 0.09209,-0.04069 0.09209,-0.09209 z m -0.415497,0.203465 c 0,0.109229 0,0.239875 -0.14778,0.239875 -0.14778,0 -0.14778,-0.132788 -0.14778,-0.239875 0,-0.109229 0,-0.239875 0.14778,-0.239875 0.14778,0 0.14778,0.132788 0.14778,0.239875 z m 0.205607,0.807436 c 0,0.08353 -0.07068,0.192757 -0.293418,0.192757 -0.214174,0 -0.295561,-0.09852 -0.295561,-0.197041 0,-0.128504 0.09424,-0.128504 0.130647,-0.128504 h 0.201323 c 0.164914,0 0.257009,0.03641 0.257009,0.132788 z"
             style="font-style:normal;font-variant:normal;font-weight:normal;font-stretch:normal;font-family:'Latin Modern Roman Demi';-inkscape-font-specification:'Latin Modern Roman Demi';stroke-width:0.0535433"
             id="path991" />
        </g>
      </g>
    </g>
  </g>
</svg>
