<?xml version="1.0" encoding="UTF-8" standalone="no"?>
<svg
   xmlns:dc="http://purl.org/dc/elements/1.1/"
   xmlns:cc="http://creativecommons.org/ns#"
   xmlns:rdf="http://www.w3.org/1999/02/22-rdf-syntax-ns#"
   xmlns:svg="http://www.w3.org/2000/svg"
   xmlns="http://www.w3.org/2000/svg"
   xmlns:sodipodi="http://sodipodi.sourceforge.net/DTD/sodipodi-0.dtd"
   xmlns:inkscape="http://www.inkscape.org/namespaces/inkscape"
   width="250"
   height="64"
   viewBox="0 0 66.145833 16.933332"
   version="1.1"
   id="svg888"
   inkscape:version="1.0.1 (3bc2e813f5, 2020-09-07)"
   sodipodi:docname="AboutProject.svg"
   inkscape:export-filename="/home/rostislav/Pictures/Pictures/SVGs/Title.png"
   inkscape:export-xdpi="91"
   inkscape:export-ydpi="91">
  <defs
     id="defs882">
    <rect
       x="-0.75362235"
       y="37.830677"
       width="201.56561"
       height="12.346849"
       id="rect1465" />
    <rect
       x="0.56001562"
       y="0.22823699"
       width="198.67982"
       height="49.444149"
       id="rect1453" />
  </defs>
  <sodipodi:namedview
     id="base"
     pagecolor="#ffffff"
     bordercolor="#666666"
     borderopacity="1.0"
     inkscape:pageopacity="0.0"
     inkscape:pageshadow="2"
     inkscape:zoom="2.8"
     inkscape:cx="205.49264"
     inkscape:cy="52.272126"
     inkscape:document-units="px"
     inkscape:current-layer="g156"
     inkscape:document-rotation="0"
     showgrid="false"
     inkscape:window-width="1366"
     inkscape:window-height="704"
     inkscape:window-x="0"
     inkscape:window-y="27"
     inkscape:window-maximized="1"
     showborder="false"
     units="px" />
  <metadata
     id="metadata885">
    <rdf:RDF>
      <cc:Work
         rdf:about="">
        <dc:format>image/svg+xml</dc:format>
        <dc:type
           rdf:resource="http://purl.org/dc/dcmitype/StillImage" />
        <dc:title />
      </cc:Work>
    </rdf:RDF>
  </metadata>
  <g
     inkscape:label="Layer 1"
     inkscape:groupmode="layer"
     id="layer1">
    <path
       d="M 3.8440188,8.802083 H 7.2414295 L 5.1678924,2.2916665 4.976489,5.1388887 Z M 2.6636976,-6.802625e-8 q 0,0 4.8967375,0 L 11.133299,11.180555 l 1.004868,2.048612 q 0,0 -3.4612118,0 l -0.781564,-2.378473 -5.8378043,0.01736 0.9889176,0.538194 -0.5742104,1.822918 H 0 L 0.95701717,11.197916 4.0832731,1.1979166 Z M 3.0465045,11.406249 Z"
       style="font-style:normal;font-variant:normal;font-weight:normal;font-stretch:normal;font-size:10.5833px;line-height:1.25;font-family:'a Absolute Empire';-inkscape-font-specification:'a Absolute Empire';white-space:pre;fill:#000000;fill-opacity:1;stroke:none;stroke-width:1.6101"
       id="path1151" />
    <path
       d="m 20.687519,11.180555 0.988918,-2.048611 q 0.159503,0.6944444 0.494459,2.048611 0.334955,1.371528 0.494459,2.048612 h -5.311446 q -2.583946,0 -4.019471,-2.32639 -1.13247,-1.8229164 -1.13247,-4.3055551 0,-2.7777777 1.355774,-4.6527776 0.54231,-0.7118055 1.212221,-1.18055544 L 13.398239,-6.802625e-8 h 8.692906 V 2.8472221 l -1.244123,-0.798611 h -2.28089 q -1.722632,0 -2.615847,1.8229165 -0.59016,1.2152777 -0.59016,2.7604166 0,2.1701388 1.036767,3.4722218 0.861316,1.059028 2.15329,1.076389 z"
       style="font-style:normal;font-variant:normal;font-weight:normal;font-stretch:normal;font-size:10.5833px;line-height:1.25;font-family:'a Absolute Empire';-inkscape-font-specification:'a Absolute Empire';white-space:pre;fill:#000000;fill-opacity:1;stroke:none;stroke-width:1.6101"
       id="path1153" />
    <path
       d="m 31.629415,11.180555 0.988918,-2.048611 q 0.159503,0.6944444 0.494459,2.048611 0.334955,1.371528 0.494459,2.048612 h -5.311446 q -2.583946,0 -4.019471,-2.32639 -1.13247,-1.8229164 -1.13247,-4.3055551 0,-2.7777777 1.355774,-4.6527776 0.54231,-0.7118055 1.212221,-1.18055544 L 24.340136,-6.802625e-8 h 8.692905 V 2.8472221 l -1.244123,-0.798611 h -2.28089 q -1.722632,0 -2.615848,1.8229165 -0.59016,1.2152777 -0.59016,2.7604166 0,2.1701388 1.036768,3.4722218 0.861316,1.059028 2.153288,1.076389 z"
       style="font-style:normal;font-variant:normal;font-weight:normal;font-stretch:normal;font-size:10.5833px;line-height:1.25;font-family:'a Absolute Empire';-inkscape-font-specification:'a Absolute Empire';white-space:pre;fill:#000000;fill-opacity:1;stroke:none;stroke-width:1.6101"
       id="path1155" />
    <path
       d="M 35.138479,1.5277776 33.304197,-6.802625e-8 H 43.416678 V 2.8472221 l -1.244123,-0.798611 h -5.901606 l 1.818333,0.7638887 V 5.4166663 H 41.8376 l -0.653963,2.0486112 h -3.094355 v 3.7152775 h 3.92377 l 1.004868,-2.048611 0.972968,4.097223 H 34.64402 l 0.494459,-2.048612 z"
       style="font-style:normal;font-variant:normal;font-weight:normal;font-stretch:normal;font-size:10.5833px;line-height:1.25;font-family:'a Absolute Empire';-inkscape-font-specification:'a Absolute Empire';white-space:pre;fill:#000000;fill-opacity:1;stroke:none;stroke-width:1.6101"
       id="path1157" />
    <path
       d="m 46.830038,2.0486111 1.818333,0.7638887 v 3.4027777 h 2.233041 q 1.18032,0 1.626928,-1.1284722 0.175453,-0.4513889 0.175453,-0.954861 0,-1.1631944 -0.765613,-1.7534721 -0.462558,-0.3298611 -1.05272,-0.3298611 z m 1.818333,6.1979163 v 2.9340276 l 0.494459,2.048612 h -3.939721 l 0.494459,-2.048612 V 1.5277776 L 43.863286,-6.802625e-8 h 8.198446 q 2.137338,0 3.190057,1.75347216802625 0.638011,1.0763889 0.638011,2.4131944 0,1.892361 -1.13247,3.0555554 -1.004868,1.0243055 -2.520145,1.0243055 z"
       style="font-style:normal;font-variant:normal;font-weight:normal;font-stretch:normal;font-size:10.5833px;line-height:1.25;font-family:'a Absolute Empire';-inkscape-font-specification:'a Absolute Empire';white-space:pre;fill:#000000;fill-opacity:1;stroke:none;stroke-width:1.6101"
       id="path1159" />
    <path
       d="M 57.787881,2.0486111 55.602693,-6.802625e-8 H 66.145831 V 2.8472221 l -1.228172,-0.798611 h -3.95567 l 1.834282,0.7638887 v 8.3680552 l 0.478509,2.048612 h -3.939721 l 0.494459,-2.048612 V 2.0486111 Z"
       style="font-style:normal;font-variant:normal;font-weight:normal;font-stretch:normal;font-size:10.5833px;line-height:1.25;font-family:'a Absolute Empire';-inkscape-font-specification:'a Absolute Empire';white-space:pre;fill:#000000;fill-opacity:1;stroke:none;stroke-width:1.6101"
       id="path1161" />
    <text
       xml:space="preserve"
       id="text1463"
       style="font-style:normal;font-variant:normal;font-weight:normal;font-stretch:normal;font-size:7.9375px;line-height:1.25;font-family:'a Adulsa Script';-inkscape-font-specification:'a Adulsa Script';white-space:pre;shape-inside:url(#rect1465);fill:#000000;fill-opacity:1;stroke:none;"
       transform="matrix(0.42063433,0,0,1.3320749,0.3171824,-40.499801)" />
    <g
       id="g156">
      <g
         id="g204">
        <path
           d="M 0.76282472,14.108055 V 13.758334 H 1.1462797 v 0.349721 z M 1.1381211,16.391068 H 0.77098334 V 14.473494 H 1.1381211 Z"
           style="font-style:normal;font-variant:normal;font-weight:normal;font-stretch:normal;font-size:4.00368px;line-height:1.25;font-family:Teko;-inkscape-font-specification:Teko;stroke-width:0.100092"
           id="path1012" />
        <path
           d="m 2.1620253,16.005982 v -0.318286 q 0,-0.07073 -0.024476,-0.09037 -0.024476,-0.02358 -0.097903,-0.02358 h -0.208045 q -0.3793757,0 -0.3793757,-0.345792 v -0.404734 q 0,-0.349722 0.3793757,-0.349722 h 0.2977894 q 0.3834549,0 0.3834549,0.349722 v 0.184684 h -0.358979 v -0.149319 q 0,-0.07073 -0.024476,-0.09037 -0.024476,-0.02357 -0.097903,-0.02357 h -0.097903 q -0.073427,0 -0.097903,0.02357 -0.024476,0.01965 -0.024476,0.09037 v 0.330074 q 0,0.07073 0.024476,0.09431 0.024476,0.01965 0.097903,0.01965 h 0.2121232 q 0.3752964,0 0.3752964,0.349721 v 0.392946 q 0,0.345792 -0.3793757,0.345792 H 1.83976 q -0.3793756,0 -0.3793756,-0.345792 v -0.188613 h 0.3589791 v 0.149319 q 0,0.07073 0.024476,0.09431 0.024476,0.01965 0.097903,0.01965 h 0.097903 q 0.073427,0 0.097903,-0.01965 0.024476,-0.02358 0.024476,-0.09431 z"
           style="font-style:normal;font-variant:normal;font-weight:normal;font-stretch:normal;font-size:4.00368px;line-height:1.25;font-family:Teko;-inkscape-font-specification:Teko;stroke-width:0.100092"
           id="path1014" />
        <path
           d="M 4.6340766,14.701403 H 4.2587802 v -0.377227 q 0,-0.07073 -0.024476,-0.09038 -0.020396,-0.02358 -0.093825,-0.02358 H 3.9324356 q -0.073427,0 -0.097903,0.02358 -0.024476,0.01965 -0.024476,0.09038 v 1.677876 q 0,0.07073 0.024476,0.09431 0.024476,0.01965 0.097903,0.01965 h 0.2080447 q 0.073427,0 0.093825,-0.01965 0.024476,-0.02358 0.024476,-0.09431 v -0.373298 h 0.3752964 v 0.416522 q 0,0.349722 -0.383455,0.349722 h -0.432407 q -0.3793756,0 -0.3793756,-0.349722 v -1.768254 q 0,-0.345793 0.3793756,-0.345793 h 0.4324067 q 0.383455,0 0.383455,0.345793 z"
           style="font-style:normal;font-variant:normal;font-weight:normal;font-stretch:normal;font-size:4.00368px;line-height:1.25;font-family:Teko;-inkscape-font-specification:Teko;stroke-width:0.100092"
           id="path1016" />
        <path
           d="m 5.3193958,14.473494 h 0.436486 q 0.3793756,0 0.3793756,0.349722 v 1.22206 q 0,0.345792 -0.3793756,0.345792 h -0.436486 q -0.3752964,0 -0.3752964,-0.345792 v -1.22206 q 0,-0.349722 0.3752964,-0.349722 z m 0.4528032,1.5207 v -1.123825 q 0,-0.07073 -0.024476,-0.09431 -0.024476,-0.02358 -0.097903,-0.02358 H 5.4254578 q -0.073427,0 -0.097903,0.02358 -0.020396,0.02357 -0.020396,0.09431 v 1.123825 q 0,0.07073 0.020396,0.09431 0.024476,0.02358 0.097903,0.02358 h 0.224362 q 0.073427,0 0.097903,-0.02358 0.024476,-0.02357 0.024476,-0.09431 z"
           style="font-style:normal;font-variant:normal;font-weight:normal;font-stretch:normal;font-size:4.00368px;line-height:1.25;font-family:Teko;-inkscape-font-specification:Teko;stroke-width:0.100092"
           id="path1018" />
        <path
           d="m 7.0938907,14.473494 h 0.1427757 q 0.3712171,0 0.3712171,0.349722 v 1.567852 H 7.2407457 v -1.516769 q 0,-0.07073 -0.024476,-0.09038 -0.024476,-0.02358 -0.097903,-0.02358 H 6.9755907 q -0.073427,0 -0.1060621,0.03144 -0.028555,0.03144 -0.028555,0.106096 v 1.493192 H 6.4738358 v -1.917572 h 0.3671377 v 0.153249 q 0.053031,-0.153249 0.2529172,-0.153249 z"
           style="font-style:normal;font-variant:normal;font-weight:normal;font-stretch:normal;font-size:4.00368px;line-height:1.25;font-family:Teko;-inkscape-font-specification:Teko;stroke-width:0.100092"
           id="path1020" />
        <path
           d="M 8.6358681,14.760345 H 8.3625545 v 1.214201 q 0,0.07073 0.020396,0.09431 0.024476,0.01965 0.097903,0.01965 h 0.1550137 v 0.302568 h -0.261075 q -0.3834549,0 -0.3834549,-0.345792 V 14.760345 H 7.8036893 V 14.473494 H 7.9913375 V 14.14735 h 0.371217 v 0.326144 h 0.2733136 z"
           style="font-style:normal;font-variant:normal;font-weight:normal;font-stretch:normal;font-size:4.00368px;line-height:1.25;font-family:Teko;-inkscape-font-specification:Teko;stroke-width:0.100092"
           id="path1022" />
        <path
           d="m 9.5455532,14.469566 h 0.081587 v 0.306497 H 9.4802843 q -0.2569965,0 -0.2569965,0.290779 v 1.324226 H 8.8561501 v -1.917574 h 0.3671377 v 0.235768 q 0.032635,-0.102166 0.1142207,-0.168967 0.085665,-0.07073 0.2080447,-0.07073 z"
           style="font-style:normal;font-variant:normal;font-weight:normal;font-stretch:normal;font-size:4.00368px;line-height:1.25;font-family:Teko;-inkscape-font-specification:Teko;stroke-width:0.100092"
           id="path1024" />
        <path
           d="m 10.181922,14.473494 h 0.436486 q 0.379375,0 0.379375,0.349722 v 1.22206 q 0,0.345792 -0.379375,0.345792 h -0.436486 q -0.3752968,0 -0.3752968,-0.345792 v -1.22206 q 0,-0.349722 0.3752968,-0.349722 z m 0.452802,1.5207 v -1.123825 q 0,-0.07073 -0.02447,-0.09431 -0.02447,-0.02358 -0.0979,-0.02358 h -0.224362 q -0.07343,0 -0.0979,0.02358 -0.0204,0.02357 -0.0204,0.09431 v 1.123825 q 0,0.07073 0.0204,0.09431 0.02447,0.02358 0.0979,0.02358 h 0.224362 q 0.07343,0 0.0979,-0.02358 0.02447,-0.02357 0.02447,-0.09431 z"
           style="font-style:normal;font-variant:normal;font-weight:normal;font-stretch:normal;font-size:4.00368px;line-height:1.25;font-family:Teko;-inkscape-font-specification:Teko;stroke-width:0.100092"
           id="path1026" />
        <path
           d="M 11.703499,16.391068 H 11.33636 v -2.628805 h 0.367139 z"
           style="font-style:normal;font-variant:normal;font-weight:normal;font-stretch:normal;font-size:4.00368px;line-height:1.25;font-family:Teko;-inkscape-font-specification:Teko;stroke-width:0.100092"
           id="path1028" />
        <path
           d="m 13.861445,14.701403 h -0.375297 v -0.377227 q 0,-0.07073 -0.02447,-0.09038 -0.0204,-0.02358 -0.09382,-0.02358 H 13.15981 q -0.07343,0 -0.09791,0.02358 -0.02447,0.01965 -0.02447,0.09038 v 1.677876 q 0,0.07073 0.02447,0.09431 0.02447,0.01965 0.09791,0.01965 h 0.208045 q 0.07343,0 0.09382,-0.01965 0.02447,-0.02358 0.02447,-0.09431 v -0.373298 h 0.375297 v 0.416522 q 0,0.349722 -0.383455,0.349722 h -0.432407 q -0.379375,0 -0.379375,-0.349722 v -1.768254 q 0,-0.345793 0.379375,-0.345793 h 0.432407 q 0.383455,0 0.383455,0.345793 z"
           style="font-style:normal;font-variant:normal;font-weight:normal;font-stretch:normal;font-size:4.00368px;line-height:1.25;font-family:Teko;-inkscape-font-specification:Teko;stroke-width:0.100092"
           id="path1030" />
        <path
           d="m 14.546764,14.473494 h 0.436486 q 0.379376,0 0.379376,0.349722 v 1.22206 q 0,0.345792 -0.379376,0.345792 h -0.436486 q -0.375296,0 -0.375296,-0.345792 v -1.22206 q 0,-0.349722 0.375296,-0.349722 z m 0.452804,1.5207 v -1.123825 q 0,-0.07073 -0.02447,-0.09431 -0.02447,-0.02358 -0.09791,-0.02358 h -0.224361 q -0.07343,0 -0.0979,0.02358 -0.0204,0.02357 -0.0204,0.09431 v 1.123825 q 0,0.07073 0.0204,0.09431 0.02447,0.02358 0.0979,0.02358 h 0.224361 q 0.07343,0 0.09791,-0.02358 0.02447,-0.02357 0.02447,-0.09431 z"
           style="font-style:normal;font-variant:normal;font-weight:normal;font-stretch:normal;font-size:4.00368px;line-height:1.25;font-family:Teko;-inkscape-font-specification:Teko;stroke-width:0.100092"
           id="path1032" />
        <path
           d="m 17.088169,14.473494 h 0.142776 q 0.367138,0 0.367138,0.349722 v 1.567852 h -0.367138 v -1.516769 q 0,-0.07073 -0.02447,-0.09038 -0.0204,-0.02358 -0.09382,-0.02358 h -0.146855 q -0.130537,0 -0.130537,0.137531 v 1.493192 h -0.367139 v -1.516769 q 0,-0.07073 -0.02447,-0.09038 -0.02447,-0.02357 -0.0979,-0.02357 h -0.142776 q -0.07343,0 -0.106062,0.03144 -0.02855,0.03144 -0.02855,0.106096 v 1.493192 h -0.367139 v -1.917574 h 0.367139 v 0.15325 q 0.05303,-0.15325 0.252917,-0.15325 h 0.142776 q 0.261075,0 0.338582,0.176826 0.04895,-0.176826 0.285552,-0.176826 z"
           style="font-style:normal;font-variant:normal;font-weight:normal;font-stretch:normal;font-size:4.00368px;line-height:1.25;font-family:Teko;-inkscape-font-specification:Teko;stroke-width:0.100092"
           id="path1034" />
        <path
           d="m 18.556713,14.473494 h 0.142775 q 0.371217,0 0.371217,0.349722 v 1.22206 q 0,0.345792 -0.371217,0.345792 h -0.142775 q -0.199886,0 -0.252917,-0.153248 v 0.695513 h -0.367138 v -2.459839 h 0.367138 v 0.153249 q 0.05303,-0.153249 0.252917,-0.153249 z m 0.146855,1.51677 v -1.115965 q 0,-0.07073 -0.02447,-0.09038 -0.02447,-0.02358 -0.09791,-0.02358 h -0.142776 q -0.07343,0 -0.106062,0.03144 -0.02855,0.03144 -0.02855,0.106096 v 1.068812 q 0,0.07466 0.02855,0.106094 0.03263,0.03144 0.106062,0.03144 h 0.142776 q 0.07343,0 0.09791,-0.01965 0.02447,-0.02358 0.02447,-0.09431 z"
           style="font-style:normal;font-variant:normal;font-weight:normal;font-stretch:normal;font-size:4.00368px;line-height:1.25;font-family:Teko;-inkscape-font-specification:Teko;stroke-width:0.100092"
           id="path1036" />
        <path
           d="m 19.760104,14.473494 h 0.436487 q 0.379375,0 0.379375,0.349722 v 1.22206 q 0,0.345792 -0.379375,0.345792 h -0.436487 q -0.375296,0 -0.375296,-0.345792 v -1.22206 q 0,-0.349722 0.375296,-0.349722 z m 0.452803,1.5207 v -1.123825 q 0,-0.07073 -0.02447,-0.09431 -0.02447,-0.02358 -0.09791,-0.02358 h -0.224361 q -0.07343,0 -0.09791,0.02358 -0.0204,0.02357 -0.0204,0.09431 v 1.123825 q 0,0.07073 0.0204,0.09431 0.02447,0.02358 0.09791,0.02358 h 0.224361 q 0.07343,0 0.09791,-0.02358 0.02447,-0.02357 0.02447,-0.09431 z"
           style="font-style:normal;font-variant:normal;font-weight:normal;font-stretch:normal;font-size:4.00368px;line-height:1.25;font-family:Teko;-inkscape-font-specification:Teko;stroke-width:0.100092"
           id="path1038" />
        <path
           d="m 21.5346,14.473494 h 0.142774 q 0.371218,0 0.371218,0.349722 v 1.567852 h -0.367138 v -1.516769 q 0,-0.07073 -0.02447,-0.09038 -0.02447,-0.02358 -0.09791,-0.02358 h -0.142776 q -0.07343,0 -0.106062,0.03144 -0.02856,0.03144 -0.02856,0.106096 v 1.493192 H 20.91454 v -1.917574 h 0.367137 v 0.15325 q 0.05303,-0.15325 0.252918,-0.15325 z"
           style="font-style:normal;font-variant:normal;font-weight:normal;font-stretch:normal;font-size:4.00368px;line-height:1.25;font-family:Teko;-inkscape-font-specification:Teko;stroke-width:0.100092"
           id="path1040" />
        <path
           d="m 22.774707,14.473494 h 0.399773 q 0.383455,0 0.383455,0.349722 v 0.71909 h -0.803624 v 0.455817 q 0,0.0668 0.02447,0.09038 0.02447,0.02357 0.09791,0.02357 h 0.187648 q 0.07343,0 0.09791,-0.02357 0.02447,-0.02357 0.02447,-0.09431 v -0.157182 h 0.358979 v 0.208261 q 0,0.345792 -0.379376,0.345792 h -0.391614 q -0.379375,0 -0.379375,-0.345792 v -1.22206 q 0,-0.349722 0.379375,-0.349722 z m -0.0204,0.809468 h 0.440565 V 14.86644 q 0,-0.0668 -0.02447,-0.09037 -0.0204,-0.02357 -0.09383,-0.02357 h -0.199886 q -0.07343,0 -0.0979,0.02357 -0.02447,0.02358 -0.02447,0.09037 z"
           style="font-style:normal;font-variant:normal;font-weight:normal;font-stretch:normal;font-size:4.00368px;line-height:1.25;font-family:Teko;-inkscape-font-specification:Teko;stroke-width:0.100092"
           id="path1042" />
        <path
           d="m 24.492092,14.473494 h 0.142776 q 0.371217,0 0.371217,0.349722 v 1.567852 h -0.367139 v -1.516769 q 0,-0.07073 -0.02447,-0.09038 -0.02447,-0.02358 -0.09791,-0.02358 h -0.142776 q -0.07343,0 -0.106061,0.03144 -0.02856,0.03144 -0.02856,0.106096 v 1.493192 h -0.367138 v -1.917574 h 0.367138 v 0.15325 q 0.05303,-0.15325 0.252917,-0.15325 z"
           style="font-style:normal;font-variant:normal;font-weight:normal;font-stretch:normal;font-size:4.00368px;line-height:1.25;font-family:Teko;-inkscape-font-specification:Teko;stroke-width:0.100092"
           id="path1044" />
        <path
           d="m 26.034069,14.760345 h -0.273314 v 1.214201 q 0,0.07073 0.0204,0.09431 0.02447,0.01965 0.09791,0.01965 h 0.155014 v 0.302568 h -0.261076 q -0.383455,0 -0.383455,-0.345792 v -1.284931 h -0.187648 v -0.286851 h 0.187648 v -0.326144 h 0.371217 v 0.326144 h 0.273314 z"
           style="font-style:normal;font-variant:normal;font-weight:normal;font-stretch:normal;font-size:4.00368px;line-height:1.25;font-family:Teko;-inkscape-font-specification:Teko;stroke-width:0.100092"
           id="path1046" />
        <path
           d="m 26.919277,16.005982 v -0.318286 q 0,-0.07073 -0.02447,-0.09037 -0.02447,-0.02358 -0.09791,-0.02358 h -0.208044 q -0.379376,0 -0.379376,-0.345792 v -0.404734 q 0,-0.349722 0.379376,-0.349722 h 0.297789 q 0.383455,0 0.383455,0.349722 v 0.184684 h -0.358979 v -0.149319 q 0,-0.07073 -0.02447,-0.09037 -0.02447,-0.02357 -0.09791,-0.02357 h -0.09791 q -0.07343,0 -0.09791,0.02357 -0.02447,0.01965 -0.02447,0.09037 v 0.330074 q 0,0.07073 0.02447,0.09431 0.02447,0.01965 0.09791,0.01965 h 0.212124 q 0.375295,0 0.375295,0.349721 v 0.392946 q 0,0.345792 -0.379375,0.345792 h -0.301868 q -0.379376,0 -0.379376,-0.345792 v -0.188623 h 0.358979 v 0.149319 q 0,0.07073 0.02447,0.09431 0.02447,0.01965 0.09791,0.01965 h 0.0979 q 0.07343,0 0.09791,-0.01965 0.02447,-0.02357 0.02447,-0.09431 z"
           style="font-style:normal;font-variant:normal;font-weight:normal;font-stretch:normal;font-size:4.00368px;line-height:1.25;font-family:Teko;-inkscape-font-specification:Teko;stroke-width:0.100092"
           id="path1048" />
        <path
           d="m 28.889574,14.060902 h -0.171331 q -0.07343,0 -0.09791,0.02357 -0.02447,0.01965 -0.02447,0.09038 v 0.298638 h 0.29371 v 0.286851 h -0.29371 v 1.630723 H 28.228726 V 14.760348 H 28.02884 v -0.286851 h 0.199886 v -0.365439 q 0,-0.345792 0.379376,-0.345792 h 0.281472 z"
           style="font-style:normal;font-variant:normal;font-weight:normal;font-stretch:normal;font-size:4.00368px;line-height:1.25;font-family:Teko;-inkscape-font-specification:Teko;stroke-width:0.100092"
           id="path1050" />
        <path
           d="m 29.444352,14.473494 h 0.436486 q 0.379375,0 0.379375,0.349722 v 1.22206 q 0,0.345792 -0.379375,0.345792 h -0.436486 q -0.375296,0 -0.375296,-0.345792 v -1.22206 q 0,-0.349722 0.375296,-0.349722 z m 0.452803,1.5207 v -1.123825 q 0,-0.07073 -0.02447,-0.09431 -0.02447,-0.02358 -0.09791,-0.02358 h -0.224361 q -0.07343,0 -0.09791,0.02358 -0.0204,0.02357 -0.0204,0.09431 v 1.123825 q 0,0.07073 0.0204,0.09431 0.02447,0.02358 0.09791,0.02358 h 0.224361 q 0.07343,0 0.09791,-0.02358 0.02447,-0.02357 0.02447,-0.09431 z"
           style="font-style:normal;font-variant:normal;font-weight:normal;font-stretch:normal;font-size:4.00368px;line-height:1.25;font-family:Teko;-inkscape-font-specification:Teko;stroke-width:0.100092"
           id="path1052" />
        <path
           d="m 31.288195,14.469566 h 0.08158 v 0.306497 h -0.146855 q -0.256996,0 -0.256996,0.290779 v 1.324226 h -0.367138 v -1.917574 h 0.367138 v 0.235768 q 0.03263,-0.102166 0.11422,-0.168967 0.08567,-0.07073 0.208045,-0.07073 z"
           style="font-style:normal;font-variant:normal;font-weight:normal;font-stretch:normal;font-size:4.00368px;line-height:1.25;font-family:Teko;-inkscape-font-specification:Teko;stroke-width:0.100092"
           id="path1054" />
        <path
           d="m 32.565009,16.104219 h 0.738354 v 0.286849 h -1.109571 v -2.459839 h 1.081016 v 0.286851 h -0.709799 v 0.758384 h 0.587419 v 0.286851 h -0.587419 z"
           style="font-style:normal;font-variant:normal;font-weight:normal;font-stretch:normal;font-size:4.00368px;line-height:1.25;font-family:Teko;-inkscape-font-specification:Teko;stroke-width:0.100092"
           id="path1056" />
        <path
           d="m 34.30279,13.762263 h 0.367138 v 2.628805 H 34.30279 V 16.23782 q -0.05303,0.153248 -0.252918,0.153248 h -0.146854 q -0.367138,0 -0.367138,-0.345792 v -1.22599 q 0,-0.34972 0.367138,-0.34972 h 0.146854 q 0.199887,0 0.252918,0.153248 z m -0.277394,2.341956 h 0.142776 q 0.07343,0 0.101983,-0.03144 0.03263,-0.03144 0.03263,-0.106095 v -1.072741 q 0,-0.07466 -0.03263,-0.106095 -0.02856,-0.03144 -0.101983,-0.03144 h -0.142776 q -0.07343,0 -0.0979,0.02357 -0.02447,0.02357 -0.02447,0.09038 v 1.119895 q 0,0.07073 0.02447,0.09431 0.02447,0.01965 0.0979,0.01965 z"
           style="font-style:normal;font-variant:normal;font-weight:normal;font-stretch:normal;font-size:4.00368px;line-height:1.25;font-family:Teko;-inkscape-font-specification:Teko;stroke-width:0.100092"
           id="path1058" />
        <path
           d="m 35.79173,14.473494 h 0.367139 v 1.917574 H 35.79173 V 16.23782 q -0.05303,0.153248 -0.252917,0.153248 h -0.146854 q -0.367138,0 -0.367138,-0.345792 v -1.571782 h 0.367138 v 1.51677 q 0,0.07073 0.02447,0.09431 0.02447,0.01965 0.0979,0.01965 h 0.142776 q 0.07343,0 0.101983,-0.03144 0.03263,-0.03144 0.03263,-0.106095 z"
           style="font-style:normal;font-variant:normal;font-weight:normal;font-stretch:normal;font-size:4.00368px;line-height:1.25;font-family:Teko;-inkscape-font-specification:Teko;stroke-width:0.100092"
           id="path1060" />
        <path
           d="m 37.643735,15.078631 h -0.363059 v -0.204332 q 0,-0.07073 -0.02447,-0.09038 -0.02447,-0.02358 -0.09791,-0.02358 h -0.17541 q -0.07343,0 -0.0979,0.02358 -0.02447,0.01965 -0.02447,0.09038 v 1.115965 q 0,0.07073 0.02447,0.09431 0.02447,0.01965 0.0979,0.01965 h 0.17541 q 0.07343,0 0.09791,-0.01965 0.02447,-0.02357 0.02447,-0.09431 v -0.204331 h 0.363059 v 0.259343 q 0,0.345792 -0.383455,0.345792 h -0.387534 q -0.379376,0 -0.379376,-0.345792 v -1.22206 q 0,-0.349722 0.379376,-0.349722 h 0.387534 q 0.383455,0 0.383455,0.349722 z"
           style="font-style:normal;font-variant:normal;font-weight:normal;font-stretch:normal;font-size:4.00368px;line-height:1.25;font-family:Teko;-inkscape-font-specification:Teko;stroke-width:0.100092"
           id="path1062" />
        <path
           d="m 38.692118,14.473494 h 0.367138 v 1.917574 H 38.692118 V 16.23782 q -0.05303,0.153248 -0.252917,0.153248 h -0.146855 q -0.367137,0 -0.367137,-0.345792 v -1.22206 q 0,-0.349722 0.367137,-0.349722 h 0.146855 q 0.199886,0 0.252917,0.153249 z m -0.277393,1.630725 h 0.142776 q 0.07343,0 0.101983,-0.03144 0.03263,-0.03144 0.03263,-0.106095 v -1.068811 q 0,-0.07466 -0.03263,-0.106096 -0.02856,-0.03144 -0.101983,-0.03144 h -0.142776 q -0.07343,0 -0.0979,0.02357 -0.02447,0.01965 -0.02447,0.09038 v 1.115965 q 0,0.07073 0.02447,0.09431 0.02447,0.01965 0.0979,0.01965 z"
           style="font-style:normal;font-variant:normal;font-weight:normal;font-stretch:normal;font-size:4.00368px;line-height:1.25;font-family:Teko;-inkscape-font-specification:Teko;stroke-width:0.100092"
           id="path1064" />
        <path
           d="m 40.091314,14.760345 h -0.273313 v 1.214201 q 0,0.07073 0.0204,0.09431 0.02447,0.01965 0.0979,0.01965 h 0.155013 v 0.302568 h -0.261078 q -0.383455,0 -0.383455,-0.345792 v -1.284931 h -0.187648 v -0.286851 h 0.187648 v -0.326144 h 0.371217 v 0.326144 h 0.273313 z"
           style="font-style:normal;font-variant:normal;font-weight:normal;font-stretch:normal;font-size:4.00368px;line-height:1.25;font-family:Teko;-inkscape-font-specification:Teko;stroke-width:0.100092"
           id="path1066" />
        <path
           d="m 40.303436,14.108055 v -0.349721 h 0.383455 v 0.349721 z m 0.375297,2.283013 h -0.367137 v -1.917574 h 0.367137 z"
           style="font-style:normal;font-variant:normal;font-weight:normal;font-stretch:normal;font-size:4.00368px;line-height:1.25;font-family:Teko;-inkscape-font-specification:Teko;stroke-width:0.100092"
           id="path1068" />
        <path
           d="m 41.392611,14.473494 h 0.436486 q 0.379376,0 0.379376,0.349722 v 1.22206 q 0,0.345792 -0.379376,0.345792 h -0.436486 q -0.375297,0 -0.375297,-0.345792 v -1.22206 q 0,-0.349722 0.375297,-0.349722 z m 0.452803,1.5207 v -1.123825 q 0,-0.07073 -0.02447,-0.09431 -0.02447,-0.02358 -0.0979,-0.02358 h -0.224362 q -0.07343,0 -0.0979,0.02358 -0.0204,0.02357 -0.0204,0.09431 v 1.123825 q 0,0.07073 0.0204,0.09431 0.02447,0.02358 0.0979,0.02358 h 0.224362 q 0.07343,0 0.0979,-0.02358 0.02447,-0.02357 0.02447,-0.09431 z"
           style="font-style:normal;font-variant:normal;font-weight:normal;font-stretch:normal;font-size:4.00368px;line-height:1.25;font-family:Teko;-inkscape-font-specification:Teko;stroke-width:0.100092"
           id="path1070" />
        <path
           d="m 43.167106,14.473494 h 0.142775 q 0.371217,0 0.371217,0.349722 v 1.567852 h -0.367137 v -1.516769 q 0,-0.07073 -0.02447,-0.09038 -0.02447,-0.02358 -0.09791,-0.02358 h -0.142776 q -0.07343,0 -0.106062,0.03144 -0.02856,0.03144 -0.02856,0.106096 v 1.493192 h -0.367137 v -1.917574 h 0.367137 v 0.15325 q 0.05303,-0.15325 0.252918,-0.15325 z"
           style="font-style:normal;font-variant:normal;font-weight:normal;font-stretch:normal;font-size:4.00368px;line-height:1.25;font-family:Teko;-inkscape-font-specification:Teko;stroke-width:0.100092"
           id="path1072" />
        <path
           d="m 45.830887,16.391068 h -0.848496 q -0.379376,0 -0.379376,-0.345792 v -0.408663 q 0,-0.129672 0.05303,-0.208261 0.05303,-0.08252 0.195807,-0.168967 l 0.122379,-0.08645 q -0.09791,-0.117883 -0.142776,-0.176825 -0.04487,-0.05894 -0.08974,-0.157178 -0.04487,-0.09824 -0.04487,-0.184684 v -0.377228 q 0,-0.345793 0.383455,-0.345793 h 0.395692 q 0.375296,0 0.375296,0.345793 v 0.36544 q 0,0.200401 -0.07343,0.318285 -0.07343,0.113954 -0.2366,0.21612 l -0.09382,0.05895 0.46912,0.554054 V 15.4873 h 0.29779 v 0.557982 q 0,0.03144 -0.0082,0.08645 l 0.338582,0.396875 h -0.391613 l -0.142776,-0.165036 q -0.06935,0.0275 -0.17949,0.0275 z m -0.76691,-2.070822 v 0.357581 q 0,0.121813 0.171331,0.314355 l 0.02447,-0.01965 q 0.130538,-0.08252 0.17949,-0.14932 0.05303,-0.0668 0.05303,-0.180754 v -0.322214 q 0,-0.07073 -0.02447,-0.09037 -0.02447,-0.02357 -0.0979,-0.02357 h -0.187648 q -0.07343,0 -0.0979,0.02357 -0.0204,0.01965 -0.0204,0.09037 z m 0.0204,1.791831 h 0.70572 l -0.607817,-0.703372 -0.0979,0.06287 q -0.06934,0.04322 -0.0979,0.09037 -0.02447,0.04322 -0.02447,0.133601 v 0.302568 q 0,0.07073 0.02447,0.09431 0.02447,0.01965 0.0979,0.01965 z"
           style="font-style:normal;font-variant:normal;font-weight:normal;font-stretch:normal;font-size:4.00368px;line-height:1.25;font-family:Teko;-inkscape-font-specification:Teko;stroke-width:0.100092"
           id="path1074" />
        <path
           d="m 47.132176,13.931229 h 0.836258 q 0.379375,0 0.379375,0.345793 v 0.817327 q 0,0.345792 -0.379375,0.345792 h -0.46912 v 0.950927 h -0.367138 z m 0.848496,1.108107 v -0.707302 q 0,-0.07073 -0.02447,-0.09037 -0.02447,-0.02357 -0.0979,-0.02357 h -0.358979 v 0.93914 h 0.358979 q 0.07343,0 0.0979,-0.02358 0.02447,-0.02357 0.02447,-0.09431 z"
           style="font-style:normal;font-variant:normal;font-weight:normal;font-stretch:normal;font-size:4.00368px;line-height:1.25;font-family:Teko;-inkscape-font-specification:Teko;stroke-width:0.100092"
           id="path1076" />
        <path
           d="m 49.330913,14.469566 h 0.08158 v 0.306497 H 49.26564 q -0.256996,0 -0.256996,0.290779 v 1.324226 h -0.367138 v -1.917574 h 0.367138 v 0.235768 q 0.03264,-0.102166 0.11422,-0.168967 0.08567,-0.07073 0.208045,-0.07073 z"
           style="font-style:normal;font-variant:normal;font-weight:normal;font-stretch:normal;font-size:4.00368px;line-height:1.25;font-family:Teko;-inkscape-font-specification:Teko;stroke-width:0.100092"
           id="path1078" />
        <path
           d="m 49.967283,14.473494 h 0.436486 q 0.379376,0 0.379376,0.349722 v 1.22206 q 0,0.345792 -0.379376,0.345792 h -0.436486 q -0.375296,0 -0.375296,-0.345792 v -1.22206 q 0,-0.349722 0.375296,-0.349722 z m 0.452803,1.5207 v -1.123825 q 0,-0.07073 -0.02447,-0.09431 -0.02447,-0.02358 -0.0979,-0.02358 h -0.224362 q -0.07343,0 -0.09791,0.02358 -0.0204,0.02357 -0.0204,0.09431 v 1.123825 q 0,0.07073 0.0204,0.09431 0.02447,0.02358 0.09791,0.02358 h 0.224362 q 0.07343,0 0.0979,-0.02358 0.02447,-0.02357 0.02447,-0.09431 z"
           style="font-style:normal;font-variant:normal;font-weight:normal;font-stretch:normal;font-size:4.00368px;line-height:1.25;font-family:Teko;-inkscape-font-specification:Teko;stroke-width:0.100092"
           id="path1080" />
        <path
           d="m 51.864157,14.473494 h 0.367138 v 2.114047 q 0,0.345792 -0.383455,0.345792 h -0.681244 v -0.278991 h 0.575181 q 0.07343,0 0.09791,-0.02358 0.02447,-0.02357 0.02447,-0.09038 V 16.21424 q -0.05303,0.153248 -0.252917,0.153248 h -0.146855 q -0.367138,0 -0.367138,-0.34972 v -1.194555 q 0,-0.349722 0.367138,-0.349722 h 0.146855 q 0.199886,0 0.252917,0.15325 z m -0.277392,1.607148 h 0.142775 q 0.07343,0 0.101982,-0.03144 0.03263,-0.03144 0.03263,-0.106095 v -1.045235 q 0,-0.07466 -0.03263,-0.106096 -0.02855,-0.03144 -0.101982,-0.03144 h -0.142775 q -0.07343,0 -0.09791,0.02357 -0.02447,0.01965 -0.02447,0.09038 v 1.092388 q 0,0.0668 0.02447,0.09037 0.02447,0.02358 0.09791,0.02358 z"
           style="font-style:normal;font-variant:normal;font-weight:normal;font-stretch:normal;font-size:4.00368px;line-height:1.25;font-family:Teko;-inkscape-font-specification:Teko;stroke-width:0.100092"
           id="path1082" />
        <path
           d="m 53.279671,14.469566 h 0.08158 v 0.306497 h -0.146855 q -0.256997,0 -0.256997,0.290779 v 1.324226 h -0.367137 v -1.917574 h 0.367137 v 0.235768 q 0.03263,-0.102166 0.114221,-0.168967 0.08567,-0.07073 0.208045,-0.07073 z"
           style="font-style:normal;font-variant:normal;font-weight:normal;font-stretch:normal;font-size:4.00368px;line-height:1.25;font-family:Teko;-inkscape-font-specification:Teko;stroke-width:0.100092"
           id="path1084" />
        <path
           d="m 54.303575,14.473494 h 0.367137 v 1.917574 H 54.303575 V 16.23782 q -0.05303,0.153248 -0.252918,0.153248 h -0.146855 q -0.367137,0 -0.367137,-0.345792 v -1.22206 q 0,-0.349722 0.367137,-0.349722 h 0.146855 q 0.199886,0 0.252918,0.153249 z m -0.277394,1.630725 h 0.142776 q 0.07343,0 0.101983,-0.03144 0.03263,-0.03144 0.03263,-0.106095 v -1.068811 q 0,-0.07466 -0.03263,-0.106096 -0.02856,-0.03144 -0.101983,-0.03144 h -0.142776 q -0.07343,0 -0.09791,0.02357 -0.02447,0.01965 -0.02447,0.09038 v 1.115965 q 0,0.07073 0.02447,0.09431 0.02447,0.01965 0.09791,0.01965 z"
           style="font-style:normal;font-variant:normal;font-weight:normal;font-stretch:normal;font-size:4.00368px;line-height:1.25;font-family:Teko;-inkscape-font-specification:Teko;stroke-width:0.100092"
           id="path1086" />
        <path
           d="m 56.41665,14.473494 h 0.142775 q 0.367138,0 0.367138,0.349722 v 1.567852 h -0.367138 v -1.516769 q 0,-0.07073 -0.02447,-0.09038 -0.0204,-0.02358 -0.09382,-0.02358 h -0.146856 q -0.130538,0 -0.130538,0.137531 v 1.493192 H 55.7966 v -1.516769 q 0,-0.07073 -0.02447,-0.09038 -0.02447,-0.02357 -0.0979,-0.02357 h -0.142783 q -0.07343,0 -0.106062,0.03144 -0.02855,0.03144 -0.02855,0.106096 v 1.493192 h -0.367139 v -1.917574 h 0.367139 v 0.15325 q 0.05303,-0.15325 0.252917,-0.15325 h 0.142775 q 0.261076,0 0.338583,0.176826 0.04895,-0.176826 0.285552,-0.176826 z"
           style="font-style:normal;font-variant:normal;font-weight:normal;font-stretch:normal;font-size:4.00368px;line-height:1.25;font-family:Teko;-inkscape-font-specification:Teko;stroke-width:0.100092"
           id="path1088" />
        <path
           d="m 58.921334,13.931229 v 0.286851 h -0.428328 v 2.172988 H 58.125869 V 14.21808 h -0.428327 v -0.286851 z"
           style="font-style:normal;font-variant:normal;font-weight:normal;font-stretch:normal;font-size:4.00368px;line-height:1.25;font-family:Teko;-inkscape-font-specification:Teko;stroke-width:0.100092"
           id="path1090" />
        <path
           d="m 59.492435,14.473494 h 0.399771 q 0.383455,0 0.383455,0.349722 v 0.71909 h -0.803623 v 0.455817 q 0,0.0668 0.02447,0.09038 0.02447,0.02357 0.0979,0.02357 h 0.187647 q 0.07343,0 0.09791,-0.02357 0.02447,-0.02357 0.02447,-0.09431 v -0.157182 h 0.35898 v 0.208261 q 0,0.345792 -0.379376,0.345792 h -0.391613 q -0.379376,0 -0.379376,-0.345792 v -1.22206 q 0,-0.349722 0.379376,-0.349722 z m -0.0204,0.809468 h 0.440566 V 14.86644 q 0,-0.0668 -0.02447,-0.09037 -0.0204,-0.02357 -0.09383,-0.02357 h -0.199885 q -0.07343,0 -0.09791,0.02357 -0.02447,0.02358 -0.02447,0.09037 z"
           style="font-style:normal;font-variant:normal;font-weight:normal;font-stretch:normal;font-size:4.00368px;line-height:1.25;font-family:Teko;-inkscape-font-specification:Teko;stroke-width:0.100092"
           id="path1092" />
        <path
           d="m 61.254689,16.005982 v -0.318286 q 0,-0.07073 -0.02447,-0.09037 -0.02447,-0.02358 -0.09791,-0.02358 h -0.208045 q -0.379375,0 -0.379375,-0.345792 v -0.404734 q 0,-0.349722 0.379375,-0.349722 h 0.29779 q 0.383455,0 0.383455,0.349722 v 0.184684 h -0.358979 v -0.149319 q 0,-0.07073 -0.02447,-0.09037 -0.02447,-0.02357 -0.0979,-0.02357 h -0.09791 q -0.07343,0 -0.0979,0.02357 -0.02447,0.01965 -0.02447,0.09037 v 0.330074 q 0,0.07073 0.02447,0.09431 0.02447,0.01965 0.0979,0.01965 h 0.212124 q 0.375296,0 0.375296,0.349721 v 0.392946 q 0,0.345792 -0.379375,0.345792 h -0.30187 q -0.379375,0 -0.379375,-0.345792 v -0.188613 h 0.358979 v 0.149319 q 0,0.07073 0.02447,0.09431 0.02447,0.01965 0.0979,0.01965 h 0.0979 q 0.07343,0 0.09791,-0.01965 0.02447,-0.02358 0.02447,-0.09431 z"
           style="font-style:normal;font-variant:normal;font-weight:normal;font-stretch:normal;font-size:4.00368px;line-height:1.25;font-family:Teko;-inkscape-font-specification:Teko;stroke-width:0.100092"
           id="path1094" />
        <path
           d="m 62.600855,14.760345 h -0.273313 v 1.214201 q 0,0.07073 0.0204,0.09431 0.02447,0.01965 0.0979,0.01965 h 0.155013 v 0.302568 h -0.261075 q -0.383455,0 -0.383455,-0.345792 V 14.760348 H 61.76868 v -0.286851 h 0.187648 v -0.326144 h 0.371217 v 0.326144 h 0.273313 z"
           style="font-style:normal;font-variant:normal;font-weight:normal;font-stretch:normal;font-size:4.00368px;line-height:1.25;font-family:Teko;-inkscape-font-specification:Teko;stroke-width:0.100092"
           id="path1096" />
        <path
           d="m 62.812982,14.108055 v -0.349721 h 0.383455 v 0.349721 z m 0.375296,2.283013 H 62.82114 v -1.917574 h 0.367138 z"
           style="font-style:normal;font-variant:normal;font-weight:normal;font-stretch:normal;font-size:4.00368px;line-height:1.25;font-family:Teko;-inkscape-font-specification:Teko;stroke-width:0.100092"
           id="path1098" />
        <path
           d="m 64.167307,14.473494 h 0.142776 q 0.371217,0 0.371217,0.349722 v 1.567852 h -0.367138 v -1.516769 q 0,-0.07073 -0.02447,-0.09038 -0.02447,-0.02358 -0.0979,-0.02358 h -0.142776 q -0.07343,0 -0.106061,0.03144 -0.02856,0.03144 -0.02856,0.106096 v 1.493192 h -0.367137 v -1.917574 h 0.367137 v 0.15325 q 0.05303,-0.15325 0.252917,-0.15325 z"
           style="font-style:normal;font-variant:normal;font-weight:normal;font-stretch:normal;font-size:4.00368px;line-height:1.25;font-family:Teko;-inkscape-font-specification:Teko;stroke-width:0.100092"
           id="path1100" />
        <path
           d="m 65.778636,14.473494 h 0.367138 v 2.114047 q 0,0.345792 -0.383455,0.345792 h -0.681244 v -0.278991 h 0.575183 q 0.07343,0 0.09791,-0.02358 0.02447,-0.02357 0.02447,-0.09038 V 16.21424 q -0.05303,0.153248 -0.252917,0.153248 h -0.146855 q -0.367138,0 -0.367138,-0.34972 v -1.194555 q 0,-0.349722 0.367138,-0.349722 h 0.146855 q 0.199886,0 0.252917,0.15325 z m -0.277392,1.607148 h 0.142776 q 0.07343,0 0.101982,-0.03144 0.03263,-0.03144 0.03263,-0.106095 v -1.045235 q 0,-0.07466 -0.03263,-0.106096 -0.02856,-0.03144 -0.101982,-0.03144 h -0.142776 q -0.07343,0 -0.0979,0.02357 -0.02447,0.01965 -0.02447,0.09038 v 1.092388 q 0,0.0668 0.02447,0.09037 0.02447,0.02358 0.0979,0.02358 z"
           style="font-style:normal;font-variant:normal;font-weight:normal;font-stretch:normal;font-size:4.00368px;line-height:1.25;font-family:Teko;-inkscape-font-specification:Teko;stroke-width:0.100092"
           id="path1102" />
      </g>
    </g>
  </g>
</svg>
