<svg xmlns="http://www.w3.org/2000/svg" viewBox="0 0 283.46 283.46"><path d="M142 0C63.7 0 .23 63.46.23 141.73c0 78.28 63.47 141.73 141.75 141.73a142.44 142.44 0 0024.47-2.14l1.49-.26c71.98-13.43 121.88-79.46 115.15-152.36C276.37 55.8 215.21.02 142 0zm-11.4 273.52h-.33c-3.67-.33-7.32-.82-10.94-1.45l-.61-.1c-3.54-.63-7.04-1.42-10.5-2.33l-.84-.22c-3.38-.91-6.72-1.98-10-3.16-.35-.12-.7-.23-1.03-.36a129.8 129.8 0 01-9.52-3.95l-1.17-.52a119.6 119.6 0 01-9-4.7l-1.25-.7c-2.9-1.69-5.73-3.5-8.51-5.41l-1.26-.87c-2.73-1.94-5.4-4-7.98-6.15l-.72-.62v-39.83a52.03 52.03 0 0151.98-51.97h66.15a52.03 52.03 0 0151.98 51.97v39.84l-.63.52c-2.64 2.2-5.35 4.3-8.14 6.26l-1.1.76a132.13 132.13 0 01-8.65 5.51l-1.11.63a127.78 127.78 0 01-19.8 9.21c-.32.12-.64.22-.94.34-3.3 1.18-6.66 2.25-10.06 3.18l-.81.2c-3.47.91-6.97 1.7-10.51 2.34l-.61.1c-3.62.62-7.27 1.12-10.95 1.44h-.33a132.48 132.48 0 01-22.8.04zm105.9-39.3v-31.07a61.5 61.5 0 00-61.43-61.42h-66.15a61.5 61.5 0 00-61.43 61.42v31.07C-3.4 182.3-2.83 99.02 48.76 47.8c51.6-51.24 134.87-51.24 186.47 0 51.59 51.23 52.16 134.5 1.27 186.43zm0 0"/><path stroke="null" d="M75.24 57.17l24.97 10.73a41.92 41.92 0 00-7.52 23.85c0 23.6 19.86 42.82 44.27 42.82 24.42 0 44.28-19.21 44.28-42.82 0-8.42-2.6-16.66-7.38-23.63l23.47-10.09v40.63l-6.3 13.7c-.46 1.02-.37 2.18.25 3.1s1.69 1.5 2.83 1.5h12.75a3.4 3.4 0 002.8-1.46c.62-.9.74-2.05.3-3.06l-5.9-13.73V55.04c0-1.8-1.5-3.26-3.36-3.26-.16 0-.3.02-.45.04a3.34 3.34 0 00-.92-.6l-60.68-26.08a3.48 3.48 0 00-2.74 0L75.24 51.22c-1.22.52-2 1.69-2 2.98s.79 2.45 2 2.97zm99.26 33.8c0 20.02-16.84 36.3-37.54 36.3S99.43 111 99.43 90.98c0-7.59 2.5-15 7.05-21.14l29.43 12.65a3.48 3.48 0 002.74 0l28.95-12.44a35.56 35.56 0 016.9 20.93zm24.8 19.46l1.3-2.82 1.21 2.82h-2.52zm-62.02-79.52l52.38 22.51-52.38 22.51-52.37-22.51 52.37-22.51z"/></svg>