<svg xmlns="http://www.w3.org/2000/svg" viewBox="0 0 283.465 283.465"><path d="M141.751 0C63.465 0 0 63.457 0 141.732c0 78.276 63.465 141.733 141.751 141.733 4.271 0 8.525-.192 12.759-.573a141.59 141.59 0 0011.709-1.568l1.488-.263c71.976-13.43 121.882-79.46 115.15-152.36C276.125 55.8 214.97.023 141.75 0zm-11.388 273.515h-.334a131.064 131.064 0 01-10.938-1.446c-.208-.037-.416-.06-.619-.1a131.786 131.786 0 01-10.495-2.332l-.837-.214a131.875 131.875 0 01-10.011-3.16c-.342-.123-.685-.231-1.027-.358a129.802 129.802 0 01-9.52-3.952c-.387-.173-.774-.339-1.162-.523-3.062-1.417-6.063-3.013-9.007-4.692-.415-.236-.835-.471-1.25-.704a133.973 133.973 0 01-8.507-5.419c-.42-.293-.844-.577-1.262-.87-2.73-1.935-5.39-3.99-7.98-6.14l-.713-.623V203.15c.034-28.688 23.283-51.934 51.975-51.969h66.15c28.693.035 51.942 23.28 51.976 51.969v39.836l-.627.524a128.427 128.427 0 01-8.138 6.26c-.369.26-.742.506-1.11.76a132.127 132.127 0 01-8.637 5.513c-.37.215-.748.418-1.115.63-2.987 1.7-6.026 3.306-9.124 4.752-.356.166-.713.32-1.073.473a130.252 130.252 0 01-9.596 3.982c-.323.12-.648.223-.946.336a132.843 132.843 0 01-10.059 3.18l-.814.202a133.123 133.123 0 01-10.507 2.34c-.203.036-.406.062-.61.094-3.619.632-7.271 1.123-10.949 1.45h-.334c-3.78.326-7.56.501-11.388.501-3.828 0-7.64-.143-11.412-.468zm105.89-39.288V203.15c-.04-33.904-27.518-61.379-61.426-61.418h-66.15c-33.91.04-61.387 27.514-61.427 61.418v31.073c-50.89-51.934-50.323-135.2 1.27-186.437 51.592-51.235 134.871-51.235 186.464 0 51.592 51.237 52.16 134.503 1.268 186.437zm0 0"/><path d="M141.751 37.795c-26.096 0-47.25 21.152-47.25 47.244 0 26.093 21.154 47.244 47.25 47.244 26.097 0 47.251-21.151 47.251-47.244-.028-26.08-21.166-47.216-47.25-47.244zm0 85.04c-20.877 0-37.8-16.921-37.8-37.796 0-20.874 16.923-37.795 37.8-37.795 20.878 0 37.8 16.92 37.8 37.795-.022 20.863-16.934 37.773-37.8 37.796zm0 0"/></svg>