<?xml version="1.0" encoding="UTF-8" standalone="no"?>
<svg
   xmlns:dc="http://purl.org/dc/elements/1.1/"
   xmlns:cc="http://creativecommons.org/ns#"
   xmlns:rdf="http://www.w3.org/1999/02/22-rdf-syntax-ns#"
   xmlns:svg="http://www.w3.org/2000/svg"
   xmlns="http://www.w3.org/2000/svg"
   xmlns:sodipodi="http://sodipodi.sourceforge.net/DTD/sodipodi-0.dtd"
   xmlns:inkscape="http://www.inkscape.org/namespaces/inkscape"
   height="100mm"
   viewBox="0 0 283.46456 283.46456"
   width="100mm"
   version="1.1"
   id="svg6"
   sodipodi:docname="account.svg"
   inkscape:version="1.0.1 (3bc2e813f5, 2020-09-07)">
  <metadata
     id="metadata12">
    <rdf:RDF>
      <cc:Work
         rdf:about="">
        <dc:format>image/svg+xml</dc:format>
        <dc:type
           rdf:resource="http://purl.org/dc/dcmitype/StillImage" />
        <dc:title></dc:title>
      </cc:Work>
    </rdf:RDF>
  </metadata>
  <defs
     id="defs10" />
  <sodipodi:namedview
     pagecolor="#ffffff"
     bordercolor="#666666"
     borderopacity="1"
     objecttolerance="10"
     gridtolerance="10"
     guidetolerance="10"
     inkscape:pageopacity="0"
     inkscape:pageshadow="2"
     inkscape:window-width="1366"
     inkscape:window-height="704"
     id="namedview8"
     showgrid="false"
     units="mm"
     inkscape:document-units="mm"
     inkscape:zoom="0.915625"
     inkscape:cx="320"
     inkscape:cy="320"
     inkscape:window-x="0"
     inkscape:window-y="27"
     inkscape:window-maximized="1"
     inkscape:current-layer="svg6" />
  <path
     d="M 141.75146,0 C 63.465156,0 0,63.456568 0,141.73228 c 0,78.2757 63.465156,141.73228 141.75146,141.73228 4.27054,0 8.52494,-0.19147 12.75855,-0.5721 3.93601,-0.35293 7.83741,-0.89275 11.70881,-1.56865 l 1.48811,-0.26298 C 239.68318,267.6304 289.5892,201.60171 282.85693,128.70093 276.12465,55.800164 214.97126,0.02306842 141.75146,0 Z m -11.3881,273.51515 h -0.33453 c -3.67529,-0.32526 -7.3229,-0.81662 -10.9382,-1.44639 -0.20765,-0.037 -0.41529,-0.06 -0.61832,-0.0992 -3.53456,-0.63208 -7.0322,-1.41641 -10.49524,-2.33222 l -0.8375,-0.21452 c -3.37767,-0.91583 -6.71843,-1.97928 -10.010731,-3.16038 -0.341442,-0.12227 -0.685224,-0.23067 -1.026686,-0.35754 -3.227705,-1.18572 -6.397738,-2.51446 -9.519314,-3.95162 -0.387602,-0.17303 -0.775196,-0.3391 -1.162802,-0.52365 -3.061591,-1.41641 -6.063197,-3.01273 -9.007124,-4.69211 -0.41529,-0.23532 -0.835188,-0.4706 -1.250475,-0.70359 -2.897787,-1.69092 -5.72866,-3.50409 -8.506469,-5.41877 -0.419906,-0.29295 -0.844426,-0.57671 -1.262015,-0.86968 -2.729363,-1.93544 -5.389511,-3.99084 -7.980445,-6.14081 l -0.712925,-0.62289 V 203.1496 c 0.03461,-28.68787 23.28379,-51.93391 51.975536,-51.9685 h 66.15069 c 28.69175,0.0348 51.94092,23.28063 51.97553,51.9685 v 39.83683 l -0.62754,0.52365 c -2.6417,2.20534 -5.3526,4.29072 -8.13733,6.26076 -0.36915,0.25837 -0.74291,0.5052 -1.10974,0.75896 -2.81012,1.95158 -5.68944,3.78782 -8.63798,5.51334 -0.36915,0.21453 -0.74752,0.41754 -1.11436,0.62977 -2.98776,1.70014 -6.02628,3.30571 -9.12479,4.75209 -0.35531,0.16611 -0.7129,0.32066 -1.07282,0.4729 -3.14696,1.45101 -6.34467,2.78667 -9.59545,3.98161 -0.323,0.11996 -0.64831,0.22375 -0.94593,0.3368 -3.30846,1.18571 -6.66306,2.25839 -10.05919,3.17882 l -0.81442,0.203 c -3.46766,0.91581 -6.9676,1.70475 -10.50678,2.33914 -0.20303,0.037 -0.40605,0.0623 -0.60909,0.0946 -3.61992,0.63208 -7.27214,1.12344 -10.94974,1.45101 h -0.33453 c -3.77911,0.32527 -7.56054,0.50058 -11.38811,0.50058 -3.82756,0 -7.63897,-0.14302 -11.41117,-0.46829 z m 105.88908,-39.2878 V 203.1496 c -0.0392,-33.90364 -27.51741,-61.37811 -61.42563,-61.41732 h -66.15069 c -33.908223,0.0392 -61.386412,27.51368 -61.425632,61.41732 v 31.07314 C -3.6406867,182.28884 -3.0731274,99.023433 48.519423,47.786202 c 51.592547,-51.2349286 134.871537,-51.2349286 186.464077,0 51.59255,51.237231 52.16011,134.502638 1.26894,186.436538 z m 0,0"
     id="path2"
     style="stroke-width:0.590593" />
  <path
     d="m 141.75146,37.795274 c -26.0962,0 -47.250484,21.151419 -47.250484,47.244093 0,26.092673 21.154284,47.244093 47.250484,47.244093 26.09621,0 47.25049,-21.15142 47.25049,-47.244093 -0.0277,-26.081139 -21.16582,-47.216411 -47.25049,-47.244093 z m 0,85.039366 c -20.87742,0 -37.80039,-16.92067 -37.80039,-37.795273 0,-20.874602 16.92297,-37.795274 37.80039,-37.795274 20.87743,0 37.80039,16.920672 37.80039,37.795274 -0.0231,20.863063 -16.9345,37.772203 -37.80039,37.795273 z m 0,0"
     id="path4"
     style="stroke-width:0.590593" />
</svg>
