<?xml version="1.0" encoding="UTF-8" standalone="no"?>
<svg
   xmlns:dc="http://purl.org/dc/elements/1.1/"
   xmlns:cc="http://creativecommons.org/ns#"
   xmlns:rdf="http://www.w3.org/1999/02/22-rdf-syntax-ns#"
   xmlns:svg="http://www.w3.org/2000/svg"
   xmlns="http://www.w3.org/2000/svg"
   xmlns:sodipodi="http://sodipodi.sourceforge.net/DTD/sodipodi-0.dtd"
   xmlns:inkscape="http://www.inkscape.org/namespaces/inkscape"
   width="100mm"
   height="100mm"
   viewBox="0 0 100 100"
   version="1.1"
   id="svg195"
   inkscape:version="1.0.1 (3bc2e813f5, 2020-09-07)"
   sodipodi:docname="AddTask.svg">
  <defs
     id="defs189" />
  <sodipodi:namedview
     id="base"
     pagecolor="#ffffff"
     bordercolor="#666666"
     borderopacity="1.0"
     inkscape:pageopacity="0.0"
     inkscape:pageshadow="2"
     inkscape:zoom="0.35"
     inkscape:cx="400"
     inkscape:cy="560"
     inkscape:document-units="mm"
     inkscape:current-layer="layer1"
     inkscape:document-rotation="0"
     showgrid="false"
     inkscape:window-width="1366"
     inkscape:window-height="704"
     inkscape:window-x="0"
     inkscape:window-y="27"
     inkscape:window-maximized="1" />
  <metadata
     id="metadata192">
    <rdf:RDF>
      <cc:Work
         rdf:about="">
        <dc:format>image/svg+xml</dc:format>
        <dc:type
           rdf:resource="http://purl.org/dc/dcmitype/StillImage" />
        <dc:title></dc:title>
      </cc:Work>
    </rdf:RDF>
  </metadata>
  <g
     inkscape:label="Layer 1"
     inkscape:groupmode="layer"
     id="layer1">
    <g
       id="Out_line"
       data-name="Out line"
       transform="matrix(0.20833333,0,0,0.20833333,-3.3333333,-3.3333333)">
      <path
         d="m 152,240 h -16 a 8,8 0 0 0 0,16 h 16 a 8,8 0 0 0 0,-16 z"
         id="path2" />
      <path
         d="m 216,256 h 16 a 8,8 0 0 0 0,-16 h -16 a 8,8 0 0 0 0,16 z"
         id="path4" />
      <path
         d="m 184.41064,282.53027 a 8.0000407,8.0000407 0 1 0 15.17872,-5.06054 l -8,-24 a 8.0000407,8.0000407 0 1 0 -15.17872,5.06054 z"
         id="path6" />
      <circle
         cx="144"
         cy="264"
         r="8"
         id="circle8" />
      <circle
         cx="224"
         cy="264"
         r="8"
         id="circle10" />
      <path
         d="m 176,320 h 16 a 8,8 0 0 0 0,-16 h -16 a 8,8 0 0 0 0,16 z"
         id="path12" />
      <path
         d="m 294.82617,377.832 a 117.26358,117.26358 0 0 0 -55.10473,-17.60156 23.89529,23.89529 0 0 0 -6.27759,-8.10742 l -11.57044,-9.64185 A 80.24783,80.24783 0 0 0 262.37354,288 H 264 a 31.98859,31.98859 0 0 0 16,-59.69482 v -24.9917 A 35.31326,35.31326 0 0 0 244.68652,168 h -0.8374 a 17.94584,17.94584 0 0 0 -5.26367,-12.72852 l -5.12988,-5.12988 a 75.59861,75.59861 0 0 0 -106.91114,0 l -21.17138,21.17188 a 1.94211,1.94211 0 0 1 -2.74561,0 A 17.94137,17.94137 0 0 0 72,184 v 7.0293 a 48.65073,48.65073 0 0 0 14.34326,34.62793 c 0.77442,0.77441 1.57752,1.5083 2.39331,2.22387 A 31.996,31.996 0 0 0 104,288 h 1.62646 a 80.24989,80.24989 0 0 0 39.27784,53.79883 22.68107,22.68107 0 0 0 -7.702,18.13281 c -0.40027,0.0293 -0.79846,0.0684 -1.20471,0.0684 h -0.646 A 117.31625,117.31625 0 0 0 21.53809,448.8623 185.66081,185.66081 0 0 0 16,493.84961 V 496 h 16 v -2.15039 A 169.63977,169.63977 0 0 1 37.06055,452.74316 100.78814,100.78814 0 0 1 80,392.48975 V 432 a 7.99988,7.99988 0 0 0 10.97119,7.42773 l 10.64453,-4.25781 -28.16943,40.24219 13.10742,9.17578 51.81445,-74.02051 49.4961,28.28418 a 7.99833,7.99833 0 0 1 2.56347,11.56348 l -23.30517,32.9668 13.06543,9.23632 23.30517,-32.96679 a 23.9591,23.9591 0 0 0 -0.73071,-28.66822 L 237.27979,384.96 a 23.92461,23.92461 0 0 0 4.07836,-8.57666 c 1.46729,0.12647 2.92884,0.29077 4.38623,0.48071 l -16.14282,69.95142 A 219.06764,219.06764 0 0 0 224,496 h 16 a 203.04474,203.04474 0 0 1 5.19141,-45.58691 l 5.01147,-21.71582 26.82593,10.73046 A 7.99957,7.99957 0 0 0 288,432 V 392.48975 A 100.78814,100.78814 0 0 1 330.93945,452.74316 169.63977,169.63977 0 0 1 336,493.84961 V 496 h 16 v -2.15039 A 185.66081,185.66081 0 0 0 346.46191,448.8623 116.75468,116.75468 0 0 0 294.82617,377.832 Z M 264,272 v -32 a 16,16 0 0 1 0,32 z M 88,184 a 1.94147,1.94147 0 0 1 3.31445,-1.37207 17.96225,17.96225 0 0 0 25.37159,0 l 21.17187,-21.17188 a 59.59737,59.59737 0 0 1 84.28418,0 l 5.12988,5.12989 a 2.00191,2.00191 0 0 1 0,2.82812 l -8.92871,8.92871 a 8.0001849,8.0001849 0 0 0 11.31348,11.31446 L 235.314,184 h 9.37256 A 19.31415,19.31415 0 0 1 264,203.31348 V 224 h -10.74512 a 23.83777,23.83777 0 0 1 -16.9707,-7.03027 l -22.62744,-22.627 a 8.00182,8.00182 0 0 0 -11.31348,0 A 100.5903,100.5903 0 0 1 130.74512,224 H 120.9707 A 32.971,32.971 0 0 1 88,191.0293 Z m 0,72 a 16.01833,16.01833 0 0 1 16,-16 v 32 A 16.01833,16.01833 0 0 1 88,256 Z m 32,16 v -32.02368 c 0.32385,0.006 0.64587,0.0237 0.9707,0.0237 h 9.77442 a 116.39328,116.39328 0 0 0 77.0664,-28.875 l 17.15869,17.1582 A 39.685,39.685 0 0 0 248,239.64917 V 272 a 64.12048,64.12048 0 0 1 -39.91162,59.30713 23.98334,23.98334 0 0 0 -32.62158,7.0708 l -1.68555,2.52832 -1.353,-0.90234 a 22.93736,22.93736 0 0 0 -4.78637,-2.436 7.9954,7.9954 0 0 0 -4.97779,-5.20849 A 64.11266,64.11266 0 0 1 120,272 Z m 15.99756,104 a 32.08733,32.08733 0 0 0 6.70276,-0.71167 l 0.0682,0.13647 -13.37011,20.05567 -2.14112,3.05859 -5.00256,-21.67822 A 101.46763,101.46763 0 0 1 135.35156,376 Z M 96,383.96777 a 101.08685,101.08685 0 0 1 10.599,-3.79492 l 7.55725,32.74878 L 96,420.18359 Z m 128.48,-8.60742 -34.64246,46.18994 -42.42688,-24.24438 11.24561,-16.86841 a 7.999,7.999 0 0 0 0.499,-8.01562 l -5.28076,-10.56153 a 6.67886,6.67886 0 0 1 9.67822,-8.54394 l 8.00977,5.33984 a 7.99991,7.99991 0 0 0 11.09375,-2.21875 l 6.12305,-9.18457 a 8.00029,8.00029 0 0 1 11.77832,-1.708 l 22.64355,18.86914 a 7.997,7.997 0 0 1 1.27883,10.94628 z m 29.36353,37.56079 7.55822,-32.75195 A 101.33249,101.33249 0 0 1 272,383.96777 v 36.21582 z"
         id="path14" />
      <path
         d="m 404,16 h -24 a 92.02348,92.02348 0 0 0 -79.73877,137.918 l -11.85059,35.5527 a 7.99946,7.99946 0 0 0 7.58887,10.5293 8.0981,8.0981 0 0 0 1.31543,-0.1084 l 45.72119,-7.61816 A 91.27669,91.27669 0 0 0 380,200 h 24 a 92,92 0 0 0 0,-184 z m 53.74316,145.74316 A 75.5064,75.5064 0 0 1 404,184 h -24 a 75.40431,75.40431 0 0 1 -32.45312,-7.25293 8.007,8.007 0 0 0 -4.73194,-0.6582 l -35.02394,5.83593 8.81836,-26.45605 A 7.99738,7.99738 0 0 0 315.77293,148.65039 76.00436,76.00436 0 0 1 380,32 h 24 a 76.00431,76.00431 0 0 1 53.74316,129.74316 z"
         id="path16" />
      <path
         d="m 392,43.71582 a 36.04845,36.04845 0 0 0 -25.65674,10.627 c -0.0478,0.04785 -0.0952,0.09668 -0.14209,0.14551 l -3.73926,3.93457 A 22.14229,22.14229 0 0 0 393.855,89.65723 l 3.80176,-3.80176 A 8.0001955,8.0001955 0 0 0 386.34326,74.541 l -3.80176,3.80175 a 6.14164,6.14164 0 0 1 -9.45361,-0.93554 6.15817,6.15817 0 0 1 0.76709,-7.75 c 0.0478,-0.04785 0.0952,-0.09668 0.14209,-0.14551 l 3.72607,-3.9209 a 20.2842,20.2842 0 0 1 28.62012,28.752 l -8.687,8.6875 A 46.32292,46.32292 0 0 0 384,136 a 8,8 0 0 0 16,0 30.427,30.427 0 0 1 8.97021,-21.65625 l 8.68653,-8.68652 A 36.28418,36.28418 0 0 0 392,43.71582 Z"
         id="path18" />
      <circle
         cx="392"
         cy="160"
         r="8"
         id="circle20" />
    </g>
    <g
       id="g240"
       transform="matrix(0.09765625,0,0,0.09765625,50,50)"
       style="fill:#00ff00">
      <path
         d="M 256,512 C 114.83594,512 0,397.16406 0,256 0,114.83594 114.83594,0 256,0 397.16406,0 512,114.83594 512,256 512,397.16406 397.16406,512 256,512 Z M 256,32 C 132.48047,32 32,132.48047 32,256 32,379.51953 132.48047,480 256,480 379.51953,480 480,379.51953 480,256 480,132.48047 379.51953,32 256,32 Z m 0,0"
         id="path223"
         style="fill:#00ff00" />
      <path
         d="M 368,272 H 144 c -8.83203,0 -16,-7.16797 -16,-16 0,-8.83203 7.16797,-16 16,-16 h 224 c 8.83203,0 16,7.16797 16,16 0,8.83203 -7.16797,16 -16,16 z m 0,0"
         id="path225"
         style="fill:#00ff00" />
      <path
         d="m 256,384 c -8.83203,0 -16,-7.16797 -16,-16 V 144 c 0,-8.83203 7.16797,-16 16,-16 8.83203,0 16,7.16797 16,16 v 224 c 0,8.83203 -7.16797,16 -16,16 z m 0,0"
         id="path227"
         style="fill:#00ff00" />
    </g>
  </g>
</svg>
