<?xml version="1.0" encoding="UTF-8" standalone="no"?>
<svg
   xmlns:dc="http://purl.org/dc/elements/1.1/"
   xmlns:cc="http://creativecommons.org/ns#"
   xmlns:rdf="http://www.w3.org/1999/02/22-rdf-syntax-ns#"
   xmlns:svg="http://www.w3.org/2000/svg"
   xmlns="http://www.w3.org/2000/svg"
   xmlns:sodipodi="http://sodipodi.sourceforge.net/DTD/sodipodi-0.dtd"
   xmlns:inkscape="http://www.inkscape.org/namespaces/inkscape"
   width="100"
   height="100"
   viewBox="0 0 26.458333 26.458334"
   version="1.1"
   id="svg912"
   inkscape:version="1.0.2 (e86c870879, 2021-01-15)"
   sodipodi:docname="help.svg">
  <defs
     id="defs906" />
  <sodipodi:namedview
     id="base"
     pagecolor="#ffffff"
     bordercolor="#666666"
     borderopacity="1.0"
     inkscape:pageopacity="0.0"
     inkscape:pageshadow="2"
     inkscape:zoom="2.8"
     inkscape:cx="39.174423"
     inkscape:cy="21.370812"
     inkscape:document-units="px"
     inkscape:current-layer="text1491"
     inkscape:document-rotation="0"
     showgrid="false"
     units="px"
     inkscape:window-width="1366"
     inkscape:window-height="704"
     inkscape:window-x="0"
     inkscape:window-y="0"
     inkscape:window-maximized="1" />
  <metadata
     id="metadata909">
    <rdf:RDF>
      <cc:Work
         rdf:about="">
        <dc:format>image/svg+xml</dc:format>
        <dc:type
           rdf:resource="http://purl.org/dc/dcmitype/StillImage" />
        <dc:title></dc:title>
      </cc:Work>
    </rdf:RDF>
  </metadata>
  <g
     inkscape:label="Layer 1"
     inkscape:groupmode="layer"
     id="layer1">
    <circle
       style="fill:none;stroke:#000000;stroke-width:0.905575;stroke-linecap:round;stroke-linejoin:round;stroke-miterlimit:4;stroke-dasharray:none"
       id="path1884"
       cx="13.229166"
       cy="13.229166"
       r="12.776379" />
    <g
       aria-label="?"
       transform="scale(0.97651377,1.0240511)"
       id="text1491"
       style="font-size:26.1089px;line-height:1.25;font-family:'DejaVu Sans';-inkscape-font-specification:'DejaVu Sans';stroke-width:0.652729">
      <path
         d="m 11.57772,19.3692 h 2.587943 v 3.238115 H 11.57772 Z m 2.511452,-1.874028 h -2.434961 v -1.963267 q 0,-1.287597 0.356958,-2.116249 0.356957,-0.828651 1.504321,-1.925021 l 1.147364,-1.134615 q 0.726664,-0.6756701 1.045376,-1.274849 0.33146,-0.5991788 0.33146,-1.2238547 0,-1.1346152 -0.8414,-1.835782 -0.828651,-0.7011667 -2.205488,-0.7011667 -1.00713,0 -2.154494,0.446197 -1.1346154,0.446197 -2.3712186,1.3003456 V 4.6701948 Q 9.6654471,3.943531 10.889302,3.5865734 q 1.236603,-0.3569576 2.549697,-0.3569576 2.345722,0 3.760804,1.2366032 1.42783,1.2366031 1.42783,3.2636125 0,0.9688849 -0.458945,1.8485305 -0.458946,0.866897 -1.60631,1.963267 l -1.121867,1.09637 q -0.599178,0.599179 -0.854148,0.943388 -0.242221,0.33146 -0.344209,0.650173 -0.07649,0.267718 -0.114737,0.650172 -0.03824,0.382455 -0.03824,1.045376 z"
         style="stroke-width:0.652729"
         id="path1493" />
    </g>
  </g>
</svg>
