<?xml version="1.0" encoding="UTF-8" standalone="no"?>
<svg
   xmlns:dc="http://purl.org/dc/elements/1.1/"
   xmlns:cc="http://creativecommons.org/ns#"
   xmlns:rdf="http://www.w3.org/1999/02/22-rdf-syntax-ns#"
   xmlns:svg="http://www.w3.org/2000/svg"
   xmlns="http://www.w3.org/2000/svg"
   xmlns:sodipodi="http://sodipodi.sourceforge.net/DTD/sodipodi-0.dtd"
   xmlns:inkscape="http://www.inkscape.org/namespaces/inkscape"
   width="100mm"
   height="100mm"
   viewBox="0 0 100 100"
   version="1.1"
   id="svg1295"
   inkscape:version="1.0.2 (e86c870879, 2021-01-15)"
   sodipodi:docname="information.svg">
  <defs
     id="defs1289" />
  <sodipodi:namedview
     id="base"
     pagecolor="#ffffff"
     bordercolor="#666666"
     borderopacity="1.0"
     inkscape:pageopacity="0.0"
     inkscape:pageshadow="2"
     inkscape:zoom="0.7"
     inkscape:cx="123.21175"
     inkscape:cy="270.20022"
     inkscape:document-units="mm"
     inkscape:current-layer="text1299"
     inkscape:document-rotation="0"
     showgrid="false"
     inkscape:window-width="1366"
     inkscape:window-height="704"
     inkscape:window-x="0"
     inkscape:window-y="0"
     inkscape:window-maximized="1" />
  <metadata
     id="metadata1292">
    <rdf:RDF>
      <cc:Work
         rdf:about="">
        <dc:format>image/svg+xml</dc:format>
        <dc:type
           rdf:resource="http://purl.org/dc/dcmitype/StillImage" />
        <dc:title />
      </cc:Work>
    </rdf:RDF>
  </metadata>
  <g
     inkscape:label="Layer 1"
     inkscape:groupmode="layer"
     id="layer1">
    <g
       aria-label="i "
       transform="scale(0.98835796,1.0117792)"
       id="text1299"
       style="font-style:normal;font-variant:normal;font-weight:normal;font-stretch:normal;font-size:115.761px;line-height:1.25;font-family:'AR PL KaitiM GB';-inkscape-font-specification:'AR PL KaitiM GB';stroke-width:2.04939;stroke-miterlimit:4;stroke-dasharray:none">
      <path
         d="m 50.249791,14.825441 q -3.052292,0 -4.861057,1.695717 -1.808766,1.808766 -1.808766,4.974106 0,2.487053 1.921813,4.861058 1.469623,1.808765 4.74801,1.921813 3.052292,0 4.974106,-2.147909 1.808765,-2.034861 1.808765,-4.634962 0,-3.16534 -2.034861,-4.861058 -2.147909,-1.808765 -4.74801,-1.808765 z m 3.843627,61.158888 V 36.643676 h -3.16534 q -6.104584,6.556776 -17.974608,6.556776 v 3.16534 q 9.496019,0 11.304785,0.565239 1.808766,0.452191 1.808766,1.695718 v 27.35758 q 0,2.374005 -1.695718,3.504484 -1.695718,1.356574 -4.861058,1.356574 h -9.156876 v 3.16534 h 40.471132 v -3.16534 h -9.49602 q -3.391436,0 -5.313249,-1.130479 -1.695718,-1.130478 -1.921814,-3.730579 z"
         style="font-style:normal;font-variant:normal;font-weight:normal;font-stretch:normal;font-family:'AR PL KaitiM GB';-inkscape-font-specification:'AR PL KaitiM GB';stroke-width:2.04939;stroke-miterlimit:4;stroke-dasharray:none"
         id="path834" />
    </g>
    <circle
       style="opacity:1;fill:none;stroke:#000000;stroke-width:3.43958333;stroke-linecap:round;stroke-linejoin:round;stroke-miterlimit:4;stroke-dasharray:none"
       id="path1884"
       cx="50.000004"
       cy="50.000004"
       r="48.527573" />
  </g>
</svg>
