<svg xmlns="http://www.w3.org/2000/svg" viewBox="0 0 100 100">
  <path d="M98.33 0H1.67C.75 0 0 .75 0 1.67V35h3.33V3.33h93.34V40H38.33v3.33h60c.92 0 1.67-.74 1.67-1.66v-40C100 .75 99.25 0 98.33 0z"/>
  <path d="M55 8.33h33.33v3.34H55zM60 18.33h33.33v3.34H60zM53.33 28.33h33.34v3.34H53.33zM53.2 14.37a5.38 5.38 0 00-7.17-2.84L32.5 18.54c.54-1.1.82-2.31.82-3.54a8.33 8.33 0 00-16.66 0c0 1.8.6 3.57 1.7 5h-.06a11.44 11.44 0 00-10.63 7.4L3.23 42.73a5.34 5.34 0 1010.03 3.68L15 40.86v24.12A8.32 8.32 0 004.18 77.56 7.68 7.68 0 000 84.36v13.97c0 .92.75 1.67 1.67 1.67h16.66c.92 0 1.67-.75 1.67-1.67V84.37c0-2.37-1.1-4.6-2.97-6.04h12.61a7.66 7.66 0 00-2.97 6.04v13.96c0 .92.74 1.67 1.66 1.67H45c.92 0 1.67-.75 1.67-1.67V84.37a7.68 7.68 0 00-4.19-6.81A8.33 8.33 0 0035 63.44v-34.1l15.3-7.94a5.38 5.38 0 002.9-7.03zM25 10a5 5 0 110 10 5 5 0 010-10zM10 66.6a5 5 0 110 10 5 5 0 010-10zm6.67 30.07H3.33v-12.3A4.37 4.37 0 017.7 80h4.6a4.37 4.37 0 014.37 4.37zm26.66-12.3v12.3H30v-12.3A4.37 4.37 0 0134.37 80h4.6a4.37 4.37 0 014.36 4.37zM36.67 66.6a5 5 0 11-.01 10.02 5 5 0 010-10.02zm13.48-49.45a2.14 2.14 0 01-1.26 1.23l-16.32 8.47c-.56.29-.9.86-.9 1.48v36.65A8.22 8.22 0 0029.07 75h-2.4V46.67h-3.34V75H17.6c.48-1.05.73-2.18.74-3.33V30a1.67 1.67 0 00-3.25-.5L10.1 45.34a2 2 0 01-2.78 1.1 2.05 2.05 0 01-.93-2.64l4.45-15.34a8.05 8.05 0 017.47-5.13h11.8c.26 0 .53-.06.76-.18l16.57-8.6a2.05 2.05 0 012.71 2.6zM69.15 77.56a8.33 8.33 0 10-11.63 0 7.68 7.68 0 00-4.19 6.8v13.97c0 .92.75 1.67 1.67 1.67h16.67c.92 0 1.66-.75 1.66-1.67V84.37a7.68 7.68 0 00-4.18-6.81zM63.33 66.6a5 5 0 110 10 5 5 0 010-10zM70 96.67H56.67v-12.3A4.37 4.37 0 0161.03 80h4.6A4.37 4.37 0 0170 84.37v12.3zM95.82 77.56a8.33 8.33 0 10-11.64 0 7.68 7.68 0 00-4.18 6.8v13.97c0 .92.75 1.67 1.67 1.67h16.66c.92 0 1.67-.75 1.67-1.67V84.37a7.68 7.68 0 00-4.18-6.81zM90 66.6a5 5 0 110 10 5 5 0 010-10zm6.67 30.07H83.33v-12.3A4.37 4.37 0 0187.7 80h4.6a4.37 4.37 0 014.37 4.37v12.3z"/>
</svg>
