<?xml version="1.0" encoding="UTF-8" standalone="no"?>
<svg
   xmlns:dc="http://purl.org/dc/elements/1.1/"
   xmlns:cc="http://creativecommons.org/ns#"
   xmlns:rdf="http://www.w3.org/1999/02/22-rdf-syntax-ns#"
   xmlns:svg="http://www.w3.org/2000/svg"
   xmlns="http://www.w3.org/2000/svg"
   xmlns:sodipodi="http://sodipodi.sourceforge.net/DTD/sodipodi-0.dtd"
   xmlns:inkscape="http://www.inkscape.org/namespaces/inkscape"
   version="1.1"
   id="Capa_1"
   x="0px"
   y="0px"
   viewBox="0 0 100 100"
   xml:space="preserve"
   sodipodi:docname="logout.svg"
   inkscape:version="1.0.1 (3bc2e813f5, 2020-09-07)"
   width="100"
   height="100"><metadata
   id="metadata49"><rdf:RDF><cc:Work
       rdf:about=""><dc:format>image/svg+xml</dc:format><dc:type
         rdf:resource="http://purl.org/dc/dcmitype/StillImage" /><dc:title /></cc:Work></rdf:RDF></metadata><defs
   id="defs47" /><sodipodi:namedview
   pagecolor="#ffffff"
   bordercolor="#666666"
   borderopacity="1"
   objecttolerance="10"
   gridtolerance="10"
   guidetolerance="10"
   inkscape:pageopacity="0"
   inkscape:pageshadow="2"
   inkscape:window-width="1366"
   inkscape:window-height="704"
   id="namedview45"
   showgrid="false"
   inkscape:zoom="2.2890625"
   inkscape:cx="33.848245"
   inkscape:cy="66.259811"
   inkscape:window-x="0"
   inkscape:window-y="27"
   inkscape:window-maximized="1"
   inkscape:current-layer="Capa_1"
   inkscape:document-rotation="0" />


<g
   id="g14"
   style="opacity:0.455156"
   transform="matrix(1.0237162,0,0,1.0236969,-1.1866302,-1.184769)">
</g>
<g
   id="g16"
   style="opacity:0.455156"
   transform="matrix(1.0237162,0,0,1.0236969,-1.1866302,-1.184769)">
</g>
<g
   id="g18"
   style="opacity:0.455156"
   transform="matrix(1.0237162,0,0,1.0236969,-1.1866302,-1.184769)">
</g>
<g
   id="g20"
   style="opacity:0.455156"
   transform="matrix(1.0237162,0,0,1.0236969,-1.1866302,-1.184769)">
</g>
<g
   id="g22"
   style="opacity:0.455156"
   transform="matrix(1.0237162,0,0,1.0236969,-1.1866302,-1.184769)">
</g>
<g
   id="g24"
   style="opacity:0.455156"
   transform="matrix(1.0237162,0,0,1.0236969,-1.1866302,-1.184769)">
</g>
<g
   id="g26"
   style="opacity:0.455156"
   transform="matrix(1.0237162,0,0,1.0236969,-1.1866302,-1.184769)">
</g>
<g
   id="g28"
   style="opacity:0.455156"
   transform="matrix(1.0237162,0,0,1.0236969,-1.1866302,-1.184769)">
</g>
<g
   id="g30"
   style="opacity:0.455156"
   transform="matrix(1.0237162,0,0,1.0236969,-1.1866302,-1.184769)">
</g>
<g
   id="g32"
   style="opacity:0.455156"
   transform="matrix(1.0237162,0,0,1.0236969,-1.1866302,-1.184769)">
</g>
<g
   id="g34"
   style="opacity:0.455156"
   transform="matrix(1.0237162,0,0,1.0236969,-1.1866302,-1.184769)">
</g>
<g
   id="g36"
   style="opacity:0.455156"
   transform="matrix(1.0237162,0,0,1.0236969,-1.1866302,-1.184769)">
</g>
<g
   id="g38"
   style="opacity:0.455156"
   transform="matrix(1.0237162,0,0,1.0236969,-1.1866302,-1.184769)">
</g>
<g
   id="g40"
   style="opacity:0.455156"
   transform="matrix(1.0237162,0,0,1.0236969,-1.1866302,-1.184769)">
</g>
<g
   id="g42"
   style="opacity:0.455156"
   transform="matrix(1.0237162,0,0,1.0236969,-1.1866302,-1.184769)">
</g>
<g
   id="g850"
   transform="matrix(0.69999997,0,0,0.69999997,20,15.000001)"><path
     style="fill:none;stroke:#000000;stroke-width:6.14224;stroke-linecap:round;stroke-linejoin:round;stroke-miterlimit:4;stroke-dasharray:none;stroke-opacity:1"
     d="M 51.100411,3.0846448 H 12.06631 c 0,0 -8.9798631,-0.851195 -8.9798631,10.5335372 0,11.491131 0,73.947559 0,73.947559 0,0 -0.7095062,9.363143 8.8296771,9.363143 9.53918,0 39.649037,0 39.649037,0"
     id="path874" /><path
     style="fill:none;stroke:#000000;stroke-width:6.14224;stroke-linecap:round;stroke-linejoin:round;stroke-miterlimit:4;stroke-dasharray:none;stroke-opacity:1"
     d="M 72.832997,75.86181 96.92888,50.645161 71.885543,23.726121"
     id="path876" /><path
     style="fill:none;stroke:#000000;stroke-width:6.14224;stroke-linecap:round;stroke-linejoin:round;stroke-miterlimit:4;stroke-dasharray:none;stroke-opacity:1"
     d="M 96.92888,50.645161 H 37.987756"
     id="path878" /></g></svg>
