<?xml version="1.0" encoding="UTF-8" standalone="no"?>
<svg
   xmlns:dc="http://purl.org/dc/elements/1.1/"
   xmlns:cc="http://creativecommons.org/ns#"
   xmlns:rdf="http://www.w3.org/1999/02/22-rdf-syntax-ns#"
   xmlns:svg="http://www.w3.org/2000/svg"
   xmlns="http://www.w3.org/2000/svg"
   xmlns:sodipodi="http://sodipodi.sourceforge.net/DTD/sodipodi-0.dtd"
   xmlns:inkscape="http://www.inkscape.org/namespaces/inkscape"
   version="1.1"
   id="Capa_1"
   x="0px"
   y="0px"
   viewBox="0 0 377.95275 377.95275"
   xml:space="preserve"
   sodipodi:docname="home.svg"
   width="100mm"
   height="100mm"
   inkscape:version="1.0.1 (3bc2e813f5, 2020-09-07)"><metadata
   id="metadata47"><rdf:RDF><cc:Work
       rdf:about=""><dc:format>image/svg+xml</dc:format><dc:type
         rdf:resource="http://purl.org/dc/dcmitype/StillImage" /><dc:title></dc:title></cc:Work></rdf:RDF></metadata><defs
   id="defs45" /><sodipodi:namedview
   pagecolor="#ffffff"
   bordercolor="#666666"
   borderopacity="1"
   objecttolerance="10"
   gridtolerance="10"
   guidetolerance="10"
   inkscape:pageopacity="0"
   inkscape:pageshadow="2"
   inkscape:window-width="1366"
   inkscape:window-height="704"
   id="namedview43"
   showgrid="false"
   inkscape:document-units="mm"
   units="mm"
   inkscape:zoom="0.24533712"
   inkscape:cx="-792.1357"
   inkscape:cy="415.8698"
   inkscape:window-x="0"
   inkscape:window-y="27"
   inkscape:window-maximized="1"
   inkscape:current-layer="Capa_1" />
<g
   id="g10"
   transform="matrix(14.321817,0,0,16.16357,0,-24.31001)">
	<g
   id="c14_house">
		<path
   d="m 3.588,24.297 c 0,0 -0.024,0.59 0.553,0.59 0.718,0 6.652,-0.008 6.652,-0.008 l 0.01,-5.451 c 0,0 -0.094,-0.898 0.777,-0.898 h 2.761 c 1.031,0 0.968,0.898 0.968,0.898 l -0.012,5.434 c 0,0 5.628,0 6.512,0 0.732,0 0.699,-0.734 0.699,-0.734 V 14.076 L 13.33,5.913 3.588,14.077 c 0,0 0,10.22 0,10.22 z"
   id="path2" />
		<path
   d="m 0,13.317 c 0,0 0.826,1.524 2.631,0 L 13.412,4.196 23.519,13.26 c 2.088,1.506 2.871,0 2.871,0 L 13.412,1.504 Z"
   id="path4" />
		<polygon
   points="23.273,9.525 23.273,4.175 20.674,4.175 20.685,7.328 "
   id="polygon6" />
	</g>
	<g
   id="Capa_1_216_">
	</g>
</g>
<g
   id="g12"
   transform="matrix(14.321817,0,0,16.16357,0,-24.31001)">
</g>
<g
   id="g14"
   transform="matrix(14.321817,0,0,16.16357,0,-24.31001)">
</g>
<g
   id="g16"
   transform="matrix(14.321817,0,0,16.16357,0,-24.31001)">
</g>
<g
   id="g18"
   transform="matrix(14.321817,0,0,16.16357,0,-24.31001)">
</g>
<g
   id="g20"
   transform="matrix(14.321817,0,0,16.16357,0,-24.31001)">
</g>
<g
   id="g22"
   transform="matrix(14.321817,0,0,16.16357,0,-24.31001)">
</g>
<g
   id="g24"
   transform="matrix(14.321817,0,0,16.16357,0,-24.31001)">
</g>
<g
   id="g26"
   transform="matrix(14.321817,0,0,16.16357,0,-24.31001)">
</g>
<g
   id="g28"
   transform="matrix(14.321817,0,0,16.16357,0,-24.31001)">
</g>
<g
   id="g30"
   transform="matrix(14.321817,0,0,16.16357,0,-24.31001)">
</g>
<g
   id="g32"
   transform="matrix(14.321817,0,0,16.16357,0,-24.31001)">
</g>
<g
   id="g34"
   transform="matrix(14.321817,0,0,16.16357,0,-24.31001)">
</g>
<g
   id="g36"
   transform="matrix(14.321817,0,0,16.16357,0,-24.31001)">
</g>
<g
   id="g38"
   transform="matrix(14.321817,0,0,16.16357,0,-24.31001)">
</g>
<g
   id="g40"
   transform="matrix(14.321817,0,0,16.16357,0,-24.31001)">
</g>
</svg>
