<?xml version="1.0" encoding="UTF-8" standalone="no"?>
<svg
   xmlns:dc="http://purl.org/dc/elements/1.1/"
   xmlns:cc="http://creativecommons.org/ns#"
   xmlns:rdf="http://www.w3.org/1999/02/22-rdf-syntax-ns#"
   xmlns:svg="http://www.w3.org/2000/svg"
   xmlns="http://www.w3.org/2000/svg"
   xmlns:sodipodi="http://sodipodi.sourceforge.net/DTD/sodipodi-0.dtd"
   xmlns:inkscape="http://www.inkscape.org/namespaces/inkscape"
   id="Capa_1"
   enable-background="new 0 0 512 512"
   height="100mm"
   viewBox="0 0 377.95278 377.95278"
   width="100mm"
   version="1.1"
   sodipodi:docname="question.svg"
   inkscape:version="1.0.1 (3bc2e813f5, 2020-09-07)">
  <metadata
     id="metadata13">
    <rdf:RDF>
      <cc:Work
         rdf:about="">
        <dc:format>image/svg+xml</dc:format>
        <dc:type
           rdf:resource="http://purl.org/dc/dcmitype/StillImage" />
        <dc:title></dc:title>
      </cc:Work>
    </rdf:RDF>
  </metadata>
  <defs
     id="defs11" />
  <sodipodi:namedview
     pagecolor="#ffffff"
     bordercolor="#666666"
     borderopacity="1"
     objecttolerance="10"
     gridtolerance="10"
     guidetolerance="10"
     inkscape:pageopacity="0"
     inkscape:pageshadow="2"
     inkscape:window-width="1366"
     inkscape:window-height="704"
     id="namedview9"
     showgrid="false"
     units="mm"
     inkscape:document-units="mm"
     inkscape:zoom="0.28613281"
     inkscape:cx="-977.19042"
     inkscape:cy="668.8015"
     inkscape:window-x="0"
     inkscape:window-y="27"
     inkscape:window-maximized="1"
     inkscape:current-layer="Capa_1" />
  <g
     id="g6"
     transform="matrix(0.72683225,0,0,0.73818902,2.9073304,0)">
    <path
       d="m 256,392 c -33.084,0 -60,26.916 -60,60 0,33.084 26.916,60 60,60 33.084,0 60,-26.916 60,-60 0,-33.084 -26.916,-60 -60,-60 z m 0,90 c -16.542,0 -30,-13.458 -30,-30 0,-16.542 13.458,-30 30,-30 16.542,0 30,13.458 30,30 0,16.542 -13.458,30 -30,30 z"
       id="path2" />
    <path
       d="M 256,0 C 169.981,0 100,69.981 100,156 v 15 h 120 v -15 c 0,-19.851 16.149,-36 36,-36 19.851,0 36,16.149 36,36 0,10.578 -4.643,20.59 -12.74,27.471 L 196,254.258 V 362 h 120 v -52.258 l 40.976,-34.837 C 391.944,245.191 412,201.853 412,156 412,69.981 342.019,0 256,0 Z M 337.547,252.047 286,295.871 V 332 h -60 v -63.871 l 72.688,-61.8 C 313.503,193.74 322,175.396 322,156 c 0,-36.393 -29.607,-66 -66,-66 -31.235,0 -57.471,21.81 -64.281,51 H 130.887 C 138.328,78.569 191.599,30 256,30 c 69.477,0 126,56.523 126,126 0,37.034 -16.201,72.04 -44.453,96.047 z"
       id="path4" />
  </g>
</svg>
