<?xml version="1.0" encoding="UTF-8" standalone="no"?>
<svg
   xmlns:dc="http://purl.org/dc/elements/1.1/"
   xmlns:cc="http://creativecommons.org/ns#"
   xmlns:rdf="http://www.w3.org/1999/02/22-rdf-syntax-ns#"
   xmlns:svg="http://www.w3.org/2000/svg"
   xmlns="http://www.w3.org/2000/svg"
   xmlns:sodipodi="http://sodipodi.sourceforge.net/DTD/sodipodi-0.dtd"
   xmlns:inkscape="http://www.inkscape.org/namespaces/inkscape"
   width="100mm"
   height="100mm"
   viewBox="0 0 100 100"
   version="1.1"
   id="svg264"
   inkscape:version="1.0.1 (3bc2e813f5, 2020-09-07)"
   sodipodi:docname="students.svg">
  <defs
     id="defs258" />
  <sodipodi:namedview
     id="base"
     pagecolor="#ffffff"
     bordercolor="#666666"
     borderopacity="1.0"
     inkscape:pageopacity="0.0"
     inkscape:pageshadow="2"
     inkscape:zoom="0.9899495"
     inkscape:cx="232.00917"
     inkscape:cy="250.97435"
     inkscape:document-units="mm"
     inkscape:current-layer="layer1"
     inkscape:document-rotation="0"
     showgrid="false"
     inkscape:window-width="1366"
     inkscape:window-height="704"
     inkscape:window-x="0"
     inkscape:window-y="27"
     inkscape:window-maximized="1" />
  <metadata
     id="metadata261">
    <rdf:RDF>
      <cc:Work
         rdf:about="">
        <dc:format>image/svg+xml</dc:format>
        <dc:type
           rdf:resource="http://purl.org/dc/dcmitype/StillImage" />
        <dc:title />
      </cc:Work>
    </rdf:RDF>
  </metadata>
  <g
     inkscape:label="Layer 1"
     inkscape:groupmode="layer"
     id="layer1">
    <path
       style="fill:none;stroke:#000000;stroke-width:3.43958333;stroke-linecap:butt;stroke-linejoin:miter;stroke-miterlimit:4;stroke-dasharray:none;stroke-opacity:1"
       d="M 68.737666,90.549882 H 94.814351 L 94.92331,70.870636 c 0,0 -0.655088,-5.383037 -7.875578,-6.258891 -7.220489,-0.134455 -11.407354,0.05768 -11.407354,0.05768 0,0 -6.293468,1.178614 -7.141717,6.27439 0.131046,5.307261 0.239005,19.606071 0.239005,19.606071 z"
       id="path836-3" />
    <ellipse
       style="fill:none;stroke:#000000;stroke-width:3.43958333;stroke-linecap:round;stroke-linejoin:round;stroke-miterlimit:4;stroke-dasharray:none"
       id="path840-5"
       cx="81.52272"
       cy="52.136112"
       rx="9.6941385"
       ry="9.4801493" />
    <g
       id="g844"
       transform="matrix(1.0007466,0,0,1.0034568,22.712157,5.3904666)"
       style="stroke-width:3.43237266;stroke-miterlimit:4;stroke-dasharray:none">
      <path
         style="fill:none;stroke:#000000;stroke-width:3.43237266;stroke-linecap:butt;stroke-linejoin:miter;stroke-miterlimit:4;stroke-dasharray:none;stroke-opacity:1"
         d="m 9.119844,92.783516 h 36.480072 l 0.152429,-27.455995 c 0,0 -0.916438,-7.51028 -11.017568,-8.73225 -10.101129,-0.187589 -15.958359,0.08047 -15.958359,0.08047 0,0 -8.8042704,1.644372 -9.9909314,8.753872 0.1833276,7.40456 0.3343574,27.353905 0.3343574,27.353905 z"
         id="path836" />
      <ellipse
         style="opacity:1;fill:none;stroke:#000000;stroke-width:3.43237266;stroke-linecap:round;stroke-linejoin:round;stroke-miterlimit:4;stroke-dasharray:none"
         id="path840"
         cx="27.005541"
         cy="39.189575"
         rx="13.561649"
         ry="13.226469" />
    </g>
    <path
       style="fill:none;stroke:#000000;stroke-width:3.43958333;stroke-linecap:butt;stroke-linejoin:miter;stroke-miterlimit:4;stroke-dasharray:none;stroke-opacity:1"
       d="M 5.3185585,90.725502 H 31.395244 l 0.108959,-19.679246 c 0,0 -0.655088,-5.383037 -7.875578,-6.258891 -7.220489,-0.134455 -11.407354,0.05768 -11.407354,0.05768 0,0 -6.2934689,1.178614 -7.1417179,6.27439 0.1310463,5.307261 0.2390054,19.606071 0.2390054,19.606071 z"
       id="path836-6" />
    <ellipse
       style="fill:none;stroke:#000000;stroke-width:3.43958333;stroke-linecap:round;stroke-linejoin:round;stroke-miterlimit:4;stroke-dasharray:none"
       id="path840-7"
       cx="18.103613"
       cy="52.311729"
       rx="9.6941385"
       ry="9.4801493" />
  </g>
</svg>
