<svg xmlns="http://www.w3.org/2000/svg" viewBox="0 0 100 100">
  <g transform="scale(1 1.09788)">
    <path d="M78.92 0h-5.5C57.19 0 47.04 14.04 55.14 25.28l-2.72 6.52c-.4.95.49 1.93 1.74 1.93.1 0 .2 0 .3-.02l10.48-1.4c2.67.95 5.56 1.43 8.48 1.42h5.5c11.65 0 21.08-7.55 21.08-16.86C100 7.56 90.57 0 78.92 0zm12.32 26.72a19.72 19.72 0 01-12.32 4.08h-5.5c-2.57 0-5.12-.45-7.44-1.33a2.25 2.25 0 00-1.09-.12l-8.03 1.07 2.02-4.85c.18-.42.1-.88-.19-1.25-7.34-9.28 1-21.39 14.73-21.39h5.5c15.53 0 23.3 15.01 12.32 23.79z"/>
    <path d="M76.17 5.08a9.42 9.42 0 00-5.92 1.98l-.85.72C67.57 9.3 71.04 10.66 72 9.84l.03-.03.86-.72c4.4-3.48 10.94 1.77 6.56 5.27l-2 1.6A7.74 7.74 0 0074.35 22c0 1.95 3.66 1.95 3.66 0 0-1.49.74-2.92 2.06-3.97l2-1.6c5.23-4.18 1.52-11.35-5.89-11.35z"/>
    <ellipse cx="76.17" cy="26.4" rx="1.83" ry="1.47"/>
  </g>
  <g fill="none" stroke="#000" stroke-width="2.79" transform="matrix(1.25093 0 0 1.21848 -9.11 -14.88)">
    <path d="M9.12 92.78H45.6l.15-27.45s-.91-7.51-11.02-8.73c-10.1-.2-15.95.08-15.95.08s-8.8 1.64-10 8.75c.19 7.4.34 27.35.34 27.35z"/>
    <ellipse cx="27.01" cy="39.19" stroke-linecap="round" stroke-linejoin="round" rx="13.56" ry="13.23"/>
  </g>
</svg>
