<?xml version="1.0" encoding="UTF-8" standalone="no"?>
<svg
   xmlns:dc="http://purl.org/dc/elements/1.1/"
   xmlns:cc="http://creativecommons.org/ns#"
   xmlns:rdf="http://www.w3.org/1999/02/22-rdf-syntax-ns#"
   xmlns:svg="http://www.w3.org/2000/svg"
   xmlns="http://www.w3.org/2000/svg"
   xmlns:sodipodi="http://sodipodi.sourceforge.net/DTD/sodipodi-0.dtd"
   xmlns:inkscape="http://www.inkscape.org/namespaces/inkscape"
   id="Layer_1"
   enable-background="new 0 0 512 512"
   height="100mm"
   viewBox="0 0 377.95275 377.95275"
   width="100mm"
   version="1.1"
   sodipodi:docname="poker.svg"
   inkscape:version="1.0.1 (3bc2e813f5, 2020-09-07)">
  <metadata
     id="metadata13">
    <rdf:RDF>
      <cc:Work
         rdf:about="">
        <dc:format>image/svg+xml</dc:format>
        <dc:type
           rdf:resource="http://purl.org/dc/dcmitype/StillImage" />
        <dc:title></dc:title>
      </cc:Work>
    </rdf:RDF>
  </metadata>
  <defs
     id="defs11" />
  <sodipodi:namedview
     pagecolor="#ffffff"
     bordercolor="#666666"
     borderopacity="1"
     objecttolerance="10"
     gridtolerance="10"
     guidetolerance="10"
     inkscape:pageopacity="0"
     inkscape:pageshadow="2"
     inkscape:window-width="1366"
     inkscape:window-height="704"
     id="namedview9"
     showgrid="false"
     units="mm"
     inkscape:document-units="mm"
     inkscape:zoom="0.4046529"
     inkscape:cx="-244.38507"
     inkscape:cy="428.03764"
     inkscape:window-x="0"
     inkscape:window-y="27"
     inkscape:window-maximized="1"
     inkscape:current-layer="Layer_1" />
  <path
     d="m 359.49803,327.3595 v -23.22564 c 0,-4.07702 -3.30487,-7.38189 -7.38189,-7.38189 H 294.5374 V 274.6063 c 0,-4.07702 -3.30487,-7.38189 -7.38189,-7.38189 h -90.79724 v -15.50197 c 0,-4.07702 -3.30487,-7.38189 -7.38189,-7.38189 -4.07702,0 -7.38189,3.30487 -7.38189,7.38189 v 15.50197 H 90.797242 c -4.077014,0 -7.38189,3.30487 -7.38189,7.38189 v 22.14567 H 25.836614 c -4.077017,0 -7.38189,3.30487 -7.38189,7.38189 V 327.3595 C 7.7952756,330.54404 0,340.43504 0,352.11614 c 0,14.24631 11.590305,25.83662 25.836614,25.83662 14.246308,0 25.836614,-11.59031 25.836614,-25.83662 0,-11.6811 -7.795275,-21.5721 -18.454724,-24.75664 V 311.51575 H 148.37598 v 15.84375 c -10.65944,3.18454 -18.45472,13.0748 -18.45472,24.75664 0,14.24631 11.59031,25.83662 25.83661,25.83662 14.24631,0 25.83662,-11.59031 25.83662,-25.83662 0,-11.6811 -7.79528,-21.5721 -18.45473,-24.75664 v -23.22564 c 0,-4.07702 -3.30487,-7.38189 -7.38189,-7.38189 H 98.179132 V 281.98819 H 279.77362 v 14.76378 h -57.57874 c -4.07701,0 -7.38189,3.30487 -7.38189,7.38189 v 23.22564 c -10.65945,3.18454 -18.45472,13.0748 -18.45472,24.75664 0,14.24631 11.5903,25.83662 25.83661,25.83662 14.24631,0 25.83662,-11.59031 25.83662,-25.83662 0,-11.6811 -7.79528,-21.5721 -18.45473,-24.75664 v -15.84375 h 115.15748 v 15.84375 c -10.65945,3.18454 -18.45472,13.0748 -18.45472,24.75664 0,14.24631 11.5903,25.83662 25.83661,25.83662 14.24631,0 25.83662,-11.59031 25.83662,-25.83662 0,-11.6811 -7.79528,-21.5721 -18.45473,-24.75664 z M 36.909449,352.11614 c 0,6.10556 -4.967274,11.07284 -11.072835,11.07284 -6.105561,0 -11.072834,-4.96728 -11.072834,-11.07284 0,-6.10556 4.967273,-11.07283 11.072834,-11.07283 6.105561,0 11.072835,4.96727 11.072835,11.07283 z m 129.921261,0 c 0,6.10556 -4.96728,11.07284 -11.07284,11.07284 -6.10556,0 -11.07283,-4.96728 -11.07283,-11.07284 0,-6.10556 4.96727,-11.07283 11.07283,-11.07283 6.10556,0 11.07284,4.96727 11.07284,11.07283 z m 66.43701,0 c 0,6.10556 -4.96728,11.07284 -11.07284,11.07284 -6.10556,0 -11.07283,-4.96728 -11.07283,-11.07284 0,-6.10556 4.96727,-11.07283 11.07283,-11.07283 6.10556,0 11.07284,4.96727 11.07284,11.07283 z m 118.84842,11.07284 c -6.10556,0 -11.07283,-4.96728 -11.07283,-11.07284 0,-6.10556 4.96727,-11.07283 11.07283,-11.07283 6.10556,0 11.07284,4.96727 11.07284,11.07283 0,6.10556 -4.96728,11.07284 -11.07284,11.07284 z"
     id="path2"
     style="stroke-width:0.738187" />
  <circle
     cx="188.97638"
     cy="222.19489"
     r="7.3818898"
     id="circle4"
     style="stroke-width:0.738187" />
  <path
     d="m 137.82136,99.401575 c 5.48179,13.206935 15.93307,23.842765 29.00935,29.573325 v 26.78297 h -25.83662 c -4.07701,0 -7.38189,3.30488 -7.38189,7.38189 v 22.14567 h -18.45472 c -1.94144,0 -3.84596,0.78987 -5.21899,2.1629 -1.37304,1.37303 -2.1629,3.27756 -2.1629,5.21899 v 29.52756 c 0,1.94144 0.78986,3.84597 2.1629,5.219 1.37303,1.37303 3.27755,2.16289 5.21899,2.16289 h 40.60039 c 4.06742,0 7.38189,-3.31447 7.38189,-7.38189 0,-4.06742 -3.31447,-7.38189 -7.38189,-7.38189 h -33.2185 v -14.76378 h 132.87402 v 14.76378 h -33.21851 c -4.06742,0 -7.38189,3.31447 -7.38189,7.38189 0,4.06742 3.31447,7.38189 7.38189,7.38189 h 40.6004 c 1.94143,0 3.84596,-0.78986 5.21899,-2.16289 1.37303,-1.37303 2.1629,-3.27756 2.1629,-5.219 v -29.52756 c 0,-1.94143 -0.78987,-3.84596 -2.1629,-5.21899 -1.37303,-1.37303 -3.27756,-2.1629 -5.21899,-2.1629 h -18.45473 v -22.14567 c 0,-4.07701 -3.30487,-7.38189 -7.38189,-7.38189 h -25.83661 v -26.78223 c 13.07775,-5.73204 23.53051,-16.37008 29.01156,-29.579232 11.59843,-1.127954 22.51846,-5.968996 31.18996,-13.921508 9.97146,-9.143206 16.13607,-21.603099 17.30832,-35.08317 0.0185,-0.212598 0,-28.246061 0,-28.246061 0,-4.077017 -3.30487,-7.381889 -7.38189,-7.381889 H 244.34055 V 7.3818898 C 244.34055,3.304872 241.03568,0 236.95866,0 h -95.96457 c -4.07701,0 -7.38189,3.304872 -7.38189,7.3818898 V 14.76378 H 95.964567 c -4.077018,0 -7.38189,3.304872 -7.38189,7.381889 0,0 -0.01852,28.033463 0,28.246061 2.251476,25.887553 23.430123,46.517719 49.238683,49.009845 z m 91.75541,85.883855 h -81.20079 v -14.76378 h 81.20079 z m -33.2185,-51.67323 v 22.14567 H 181.59449 V 133.6122 Z m -7.38189,-14.76378 c -22.38706,0 -40.6004,-18.21333 -40.6004,-40.600389 V 44.291339 h 81.20079 v 33.956692 c 0,22.387059 -18.21334,40.600389 -40.60039,40.600389 z M 273.86811,29.527559 V 49.41806 c -1.61663,17.101625 -13.79011,30.621554 -29.80807,34.408467 0.18455,-1.835138 0.28052,-3.696113 0.28052,-5.579233 V 29.527559 Z M 148.37598,14.76378 h 81.20079 v 14.763779 h -81.20079 z m -45.02952,14.763779 h 30.26574 v 48.720472 c 0,1.881646 0.096,3.741143 0.28052,5.574804 -16.2505,-3.829724 -28.94366,-17.555611 -30.54626,-34.405512 z"
     id="path6"
     style="stroke-width:0.738187" />
</svg>
